<?xml version="1.0" encoding="UTF-8"?>
<!DOCTYPE svg PUBLIC "-//W3C//DTD SVG 1.1//EN" "http://www.w3.org/Graphics/SVG/1.1/DTD/svg11.dtd">
<!-- Creator: CorelDRAW -->
<svg xmlns="http://www.w3.org/2000/svg" xml:space="preserve" width="74.2715mm" height="75.332mm" style="shape-rendering:geometricPrecision; text-rendering:geometricPrecision; image-rendering:optimizeQuality; fill-rule:evenodd; clip-rule:evenodd"
viewBox="0 0 105.439 106.945"
 xmlns:xlink="http://www.w3.org/1999/xlink">
 <defs>
  <style type="text/css">
   <![CDATA[
    .str0 {stroke:#E6E6E6;stroke-width:0.108177}
    .fil2 {fill:#123754}
    .fil1 {fill:#C80E18}
    .fil5 {fill:#C9AA9D}
    .fil0 {fill:#E8F8FC}
    .fil3 {fill:#FCCDB8}
    .fil4 {fill:white}
    .fil6 {fill:#123754;fill-rule:nonzero}
    .fil7 {fill:white;fill-rule:nonzero}
   ]]>
  </style>
 </defs>
 <g id="Layer_x0020_1">
  <metadata id="CorelCorpID_0Corel-Layer"/>
  <path class="fil0" d="M67.8374 71.3696l0 0c0.71962,0.0962522 1.38686,-0.413828 1.48325,-1.13345l0.660705 -4.94265c0.0963942,-0.71962 -0.413828,-1.387 -1.13345,-1.48297 -0.719336,-0.0963942 -1.387,0.413544 -1.48325,1.13345l-0.660705 4.94251c-0.0963942,0.719336 0.41397,1.38714 1.13345,1.48311z"/>
  <path class="fil0" d="M63.3653 57.4688c2.6847,2.26391 4.60534,3.00142 4.60534,3.00142 -0.016042,-0.024134 -0.25866,1.75639 -0.339012,2.35066l0.0126349 0.00227144c0,0 -0.0100795,0.036343 -0.0256956,0.0948326 -0.00823396,0.0599092 -0.0130608,0.097104 -0.0130608,0.097104l-0.0124929 -0.0024134c-0.157013,0.578507 -0.625355,2.31332 -0.601647,2.29728 0,0 -2.05622,-0.0665815 -5.40943,0.975725 -3.0345,0.943357 -5.71906,2.13501 -5.71906,2.13501l1.51221 -7.47516 0.0387564 -0.191511 1.51207 -7.47516c0,0 2.01037,2.14154 4.43938,4.18995z"/>
  <path class="fil1" d="M67.0161 60.1962l-1.01065 4.9956c-0.0643101,0.317292 0.141397,0.626917 0.458689,0.691227l2.58759 0.523425c1.46891,0.296991 2.9002,-0.652755 3.19762,-2.12152l0.166951 -0.826662c0.297133,-1.46877 -0.652897,-2.9002 -2.12152,-3.19733l-2.58745 -0.523425c-0.317717,-0.0643101 -0.627059,0.141113 -0.691227,0.458689z"/>
  <path class="fil0" d="M56.9789 51.4386c-1.68044,-0.340148 -3.85648,3.40716 -4.86017,8.36883 -1.00383,4.9621 -0.455281,9.26009 1.22516,9.60009 1.68058,0.340006 3.85662,-3.40687 4.86045,-8.36897 1.00369,-4.96182 0.454998,-9.2598 -1.22544,-9.59995z"/>
  <path class="fil0" d="M55.5448 61.1319c0,1.28251 1.01789,2.32198 2.27343,2.32198 1.25525,0 2.27328,-1.03947 2.27328,-2.32198 0,-1.28251 -1.01803,-2.32198 -2.27328,-2.32198 -1.25554,0 -2.27343,1.03947 -2.27343,2.32198z"/>
  <path class="fil1" d="M56.9789 51.4386l0.116269 -0.574958c-0.109597,-0.0222885 -0.221039,-0.0329359 -0.331914,-0.0329359 -0.314878,0 -0.618115,0.0873084 -0.897218,0.228705 -0.489495,0.249574 -0.923624,0.657298 -1.33972,1.18101 -0.621238,0.787479 -1.19847,1.8508 -1.70997,3.11897 -0.51008,1.26803 -0.950313,2.73921 -1.27272,4.33192 -0.346962,1.71707 -0.513487,3.3579 -0.513487,4.80352 0.00127768,1.41156 0.154884,2.63416 0.47828,3.5866 0.163402,0.476008 0.369109,0.888416 0.645656,1.22303 0.138558,0.166809 0.296281,0.313742 0.476292,0.431005 0.179586,0.117263 0.382453,0.203862 0.597246,0.247161 0.109881,0.0220046 0.221039,0.0330778 0.33163,0.0330778 0.31502,0 0.618541,-0.0874504 0.897644,-0.228705 0.489353,-0.249716 0.923198,-0.65744 1.33944,-1.18143 0.621522,-0.787195 1.19875,-1.8508 1.71011,-3.11897 0.510222,-1.2676 0.950597,-2.73921 1.27272,-4.33178 0.347388,-1.71707 0.513629,-3.3579 0.513771,-4.80352 -0.00127768,-1.41142 -0.155168,-2.63402 -0.478564,-3.58632 -0.163118,-0.476292 -0.368825,-0.8887 -0.645656,-1.22317 -0.138558,-0.166667 -0.296281,-0.313742 -0.476292,-0.431005 -0.179444,-0.117547 -0.382312,-0.203862 -0.597246,-0.247161l-0.116269 0.574958 -0.116269 0.575242c0.0627485,0.0127768 0.12209,0.0366269 0.188955,0.0799262 0.115843,0.0745316 0.253407,0.217632 0.385435,0.446054 0.199603,0.340858 0.378336,0.862011 0.497587,1.51278 0.120386,0.651051 0.185122,1.43101 0.18498,2.2987 0.00028393,1.35576 -0.157297,2.92533 -0.490205,4.57099 -0.46962,2.3251 -1.2067,4.37635 -2.00341,5.80878 -0.39665,0.715787 -0.810336,1.27499 -1.18527,1.62976 -0.186826,0.17774 -0.362862,0.303379 -0.513061,0.379046 -0.151193,0.0759512 -0.271579,0.102357 -0.368399,0.102357 -0.0344975,0 -0.0667235,-0.00326519 -0.0989495,-0.00965361 -0.0628905,-0.0129188 -0.122232,-0.0367689 -0.189097,-0.0799262 -0.115701,-0.0745316 -0.252981,-0.217774 -0.385435,-0.44648 -0.199461,-0.340574 -0.378195,-0.861727 -0.497303,-1.51249 -0.120386,-0.650909 -0.185122,-1.43101 -0.185122,-2.29884 0,-1.35576 0.157439,-2.92533 0.490347,-4.57099 0.469478,-2.3251 1.20642,-4.37649 2.00312,-5.80878 0.396792,-0.715503 0.810052,-1.27484 1.18527,-1.62947 0.186968,-0.177882 0.362862,-0.303521 0.512919,-0.379046 0.151335,-0.0763771 0.271721,-0.102783 0.368257,-0.102783 0.0346394,0.00028393 0.0668655,0.00340716 0.0990915,0.0100795l0.116553 -0.575242z"/>
  <path class="fil2" d="M89.2042 86.6635l-1.68669 15.9009c0,0 3.95997,2.54217 3.32411,3.91099 -0.635293,1.36883 -4.15503,-0.537763 -5.13317,-2.10207 -0.977712,-1.5646 -1.56417,-15.8399 -1.56417,-15.8399l-2.49333 -0.21962c0,0 2.67675,13.6028 1.46664,14.8862 -1.39949,1.4841 -6.16,1.85747 -6.25767,0.244606 -0.0976719,-1.61343 4.5954,-1.90687 4.5954,-1.90687l-5.74447 -16.1941 13.4933 1.31985z"/>
  <path class="fil3" d="M99.9985 61.2685c0,0 0.30125,-1.72757 0.406446,-1.94407 0.236372,-0.484952 0.354344,-1.00894 0.503266,-1.5247 0.0488359,-0.170642 0.100085,-0.340432 0.152896,-0.50937l-0.0611869 -0.012067c-0.366269,-0.109881 -0.576236,-0.499433 -0.466213,-0.865844l1.37096 -4.56644c0.110165,-0.366128 0.499858,-0.575952 0.865844,-0.465787 0.366553,0.109881 0.575952,0.499433 0.466355,0.865844l-0.99418 3.31105c0.486088,0.234526 1.56885,0.755679 2.04131,0.973453 0.793868,0.365844 1.43441,1.21792 1.03138,2.24461 -0.442079,1.12422 -1.65034,3.66653 -1.65034,3.66653 -0.206417,0.849376 -0.65389,0.206559 -1.50327,0 0,0 -2.36996,-0.323964 -2.16326,-1.1732z"/>
  <path class="fil0" d="M99.9985 61.2685c0,0 0.30125,-1.72757 0.406446,-1.94407 0.236372,-0.484952 0.354344,-1.00894 0.503266,-1.5247 0.0488359,-0.170642 0.100085,-0.340432 0.152896,-0.50937l-0.0611869 -0.012067c-0.366269,-0.109881 -0.576094,-0.499433 -0.466213,-0.865844l0.0530949 -0.175895c0.0780807,0.0124929 0.153606,0.0224305 0.236797,0.0401761 1.8613,0.398921 2.9736,1.6705 2.9736,2.66951 0,0.443782 -0.260648,0.698609 -0.715787,0.698609 -0.401051,0 -1.45315,-0.486798 -1.51178,-0.508092 -0.0549404,-0.0197331 -0.104912,-0.0376207 -0.14594,-0.0296707 -0.349092,0.0662976 -0.440801,0.684981 -0.321409,1.32226 0.0904317,0.483958 -0.803379,0.766327 -1.10435,0.847389l0.00056786 -0.00823396z"/>
  <path class="fil3" d="M100.048 61.1217c0,0 -0.9046,-2.19989 -0.977854,-3.15332 -0.0731119,-0.953152 0,-1.85733 1.71125,-1.49092 1.7111,0.366695 2.81091,1.53989 2.81091,2.46905 0,0.928734 -1.35065,0.297842 -1.90659,0.0975299 -0.611017,-0.219904 -0.733249,0.464509 -0.611017,1.07567 0.12209,0.611159 0.439949,1.29529 0.439949,1.29529l-1.46664 -0.2933z"/>
  <path class="fil0 str0" d="M75.7356 85.4537c0,0 0.449603,0.58958 6.25753,1.22218 4.93782,0.537763 7.23538,0.146508 7.23538,0.146508l2.05338 -14.6174 -6.55111 -3.71536 -7.18641 2.24901 -1.80877 14.7151z"/>
  <path class="fil0" d="M88.0552 76.3114c1.43456,0 6.70557,-0.785066 11.0876,-4.89779 3.63004,-3.40645 4.84285,-9.07766 4.89864,-9.32823l-4.15063 -1.21621c-0.0110733,0.04841 -1.03876,4.70997 -3.67135,7.18044 -3.60832,3.38601 -8.50895,1.86073 -8.55537,1.85775l0.0190233 6.39552c0.0329359,0.00212947 0.162124,0.00851789 0.37209,0.00851789z"/>
  <path class="fil0" d="M71.0326 79.6371c1.78961,0 3.88473,-0.930154 6.26718,-2.78762 2.50298,-1.95145 5.59682,-5.0037 5.63374,-5.03351l-2.76093 -3.4259c-0.036485,0.0296707 -3.31261,1.07723 -6.18073,4.91539 -1.62365,2.17291 -3.45727,2.06516 -3.81531,1.71834 -0.4956,-0.479416 -0.628479,-1.77981 -0.562465,-2.50738l-4.37763 -0.439949c-0.0414538,0.399205 -0.339296,3.96096 1.88047,6.10932 0.949319,0.918655 2.65843,1.45131 3.91568,1.45131z"/>
  <path class="fil1" d="M82.3756 71.4416c0,0.766185 0.620955,1.38742 1.38742,1.38742 0.766469,0 1.38742,-0.621238 1.38742,-1.38742 0.000141965,-0.766327 -0.620955,-1.38757 -1.38742,-1.38757 -0.766469,0 -1.38757,0.62138 -1.38742,1.38757z"/>
  <polygon class="fil1" points="84.1098,71.5571 84.5482,80.9545 82.4214,86.4315 81.1983,80.9014 83.2427,71.4992 "/>
  <path class="fil3" d="M73.1933 57.4656c0,1.09327 0.974163,1.97984 2.17547,1.97984 1.20159,0 2.17547,-0.886571 2.17547,-1.97984 0.000141965,-1.09384 -0.973879,-1.98013 -2.17547,-1.98013 -1.20131,0 -2.17547,0.886287 -2.17547,1.98013z"/>
  <path class="fil3" d="M75.2735 56.5673c-0.61556,7.57113 3.50795,14.0852 9.2104,14.5487 5.70273,0.464083 10.8245,-5.29813 11.4402,-12.8694 0.61556,-7.57141 -3.50767,-14.0852 -9.2104,-14.549 -5.70273,-0.463799 -10.8245,5.29813 -11.4402,12.8697z"/>
  <path class="fil2" d="M87.3135 58.5019c-0.0662976,0.837735 0.469052,1.56346 1.19563,1.62138 0.72686,0.0573538 1.36968,-0.575242 1.43583,-1.41269 0.0667235,-0.837877 -0.468768,-1.56374 -1.19563,-1.62096 -0.726576,-0.0577797 -1.36939,0.574532 -1.43583,1.41227z"/>
  <path class="fil2" d="M78.5628 57.2799c-0.0665815,0.837451 0.468768,1.56318 1.19534,1.6211 0.72686,0.0576378 1.36996,-0.574958 1.43598,-1.41269 0.0665815,-0.837735 -0.46891,-1.56346 -1.19563,-1.6211 -0.726718,-0.0573538 -1.36939,0.574958 -1.43569,1.41269z"/>
  <path class="fil2" d="M80.1332 61.9966c1.13032,0.311329 1.93441,0.850086 4.42647,0.957695 2.49205,0.107609 3.01008,-0.442931 3.58589,0.73836 0.575952,1.18129 -0.89083,4.16298 -4.72985,3.3694 -3.83902,-0.793158 -3.8376,-4.00298 -3.76931,-4.4391 0.102641,-0.653039 0.295571,-0.678876 0.486798,-0.626349z"/>
  <path class="fil4" d="M80.8026 63.098c-0.412408,-0.224872 -0.715361,-0.619251 -0.62493,-1.07993l0.00127768 -0.00795004c1.10662,0.313033 1.92306,0.838161 4.38075,0.944209 1.33845,0.0579217 2.10491,-0.0725441 2.61897,-0.024276l0.000993754 0.00638842c0.0472743,0.431005 -0.261641,0.791596 -0.688814,0.866128 -1.94109,0.338018 -4.76661,-0.20159 -5.68825,-0.704572z"/>
  <path class="fil2" d="M78.5811 50.237c-0.672488,2.66397 -1.93881,4.81119 -3.251,5.76818 0.0877343,-4.06417 1.40744,-6.9242 3.6989,-8.81872 -0.0342135,0.95372 -0.179444,1.98836 -0.447899,3.05054z"/>
  <path class="fil2" d="M92.1993 54.5053c-0.410704,-2.9249 0.0398921,-5.55537 1.03592,-6.86017 2.01874,1.94932 3.41667,5.46196 3.08206,9.57582 -0.0790745,0.970756 -0.146508,2.42008 -0.845117,3.83916 -1.47274,-0.7615 -2.8224,-3.3454 -3.27286,-6.5548z"/>
  <path class="fil3" d="M93.1883 61.4741c0,1.09356 0.974163,1.97984 2.17547,1.97984 1.20187,0 2.17575,-0.886287 2.17575,-1.97984 0,-1.09356 -0.973879,-1.98013 -2.17575,-1.98013 -1.20131,0 -2.17561,0.886713 -2.17547,1.98013z"/>
  <path class="fil2" d="M86.7841 43.2147c3.0805,0.250426 5.90319,2.38317 7.28848,5.74575 -1.86883,0.495174 -4.51448,0.652755 -7.40801,0.350511 -3.16454,-0.330636 -5.92377,-1.13827 -7.637,-2.12294 1.63345,-2.36017 4.87806,-4.20741 7.75654,-3.97331z"/>
  <path class="fil3" d="M67.1331 74.5516l0.629756 0c1.03947,0 1.88969,-0.850228 1.88969,-1.88969l0.539893 -2.4293c0,-1.03933 -0.85037,-1.88969 -1.88984,-1.88969l-1.16951 -0.000141965c-1.03947,0 -1.88984,0.850512 -1.88984,1.88984l0.000141965 2.42916c0,1.03961 0.850086,1.88984 1.88969,1.88984z"/>
  <polygon class="fil2" points="87.1839,54.1211 86.9278,55.3376 91.0253,56.298 91.1534,55.3376 "/>
  <polygon class="fil2" points="82.5512,52.204 82.4477,53.4427 78.2469,53.188 78.3994,52.2314 "/>
  <path class="fil5" d="M83.3556 61.4086c-0.341426,0 -0.684271,-0.0689949 -0.963942,-0.229273 -0.372658,-0.214083 -0.576378,-0.558206 -0.58958,-0.9956 -0.0144804,-0.507667 0.260222,-0.919791 0.754544,-1.13103 0.222033,-0.0949745 0.464793,-0.140545 0.70372,-0.140545 0.342987,0 0.677599,0.0939808 0.932142,0.271721 0.0986656,-0.449887 0.0945486,-0.95301 0.0907156,-1.44123l-0.00156161 -0.292306c0,-0.0706985 0.0573538,-0.128052 0.128052,-0.128052 0.0706985,0 0.128052,0.0573538 0.128052,0.128052l0.00156161 0.290176c0.00454288,0.577797 0.00936968,1.17519 -0.150909,1.70812 -0.0130608,0.0432993 -0.0478422,0.0763771 -0.0917093,0.0870245 -0.0102215,0.00269733 -0.0204429,0.00383305 -0.0303805,0.00383305 -0.0340716,0 -0.0671494,-0.0132027 -0.0914254,-0.0377627 -0.213089,-0.216213 -0.559626,-0.332624 -0.915816,-0.332624 -0.205139,-0.000141965 -0.413544,0.0386145 -0.601789,0.118967 -0.230551,0.0986656 -0.61485,0.344975 -0.599092,0.888133 0.0103634,0.34824 0.165389,0.611159 0.46096,0.780665 0.238217,0.136854 0.536485,0.195344 0.835464,0.195344 0.368257,0 0.736798,-0.08887 0.993896,-0.229273 0.0194492,-0.0102215 0.04046,-0.0153322 0.0609029,-0.0153322 0.0455707,0 0.0897218,0.024134 0.11272,0.0668655 0.0337876,0.0618967 0.0106474,0.139835 -0.0512493,0.173623 -0.294009,0.159994 -0.70372,0.260222 -1.11528,0.260506z"/>
  <polygon class="fil2" points="-0,19.6362 10.884,10.3739 11.268,26.1237 3.29188,27.5303 "/>
  <polygon class="fil2" points="68.1477,37.6884 58.5442,44.4323 59.4404,32.6521 "/>
  <polygon class="fil0" points="50.8613,59.3283 33.1054,53.865 38.9103,51.8163 8.17902,43.4505 3.82539,1.02442 66.9952,0 61.6173,45.4993 35.4958,45.4993 45.91,50.7919 41.8125,53.5238 "/>
  <polygon class="fil1" points="0.00198751,19.6391 71.2208,19.0791 68.1477,37.6884 3.0998,39.9508 "/>
  <path class="fil6" d="M14.6228 10.7374l0 2.43527 0.942079 0c0.127343,0 0.213231,-0.00738218 0.260648,-0.0221465 0.546565,-0.136286 0.819138,-0.534782 0.819138,-1.19691 0,-0.663686 -0.272573,-1.06062 -0.819138,-1.19392 -0.0474163,-0.0147644 -0.133305,-0.0222885 -0.260648,-0.0222885l-0.942079 0zm-1.50213 -1.07979c0,-0.248864 0.0756673,-0.373226 0.226718,-0.373226l1.03691 0c0.0370528,0 0.0755253,0.00582056 0.112578,0.0177456 0.697616,-0.00298126 1.04869,-0.00454288 1.05466,-0.00454288 0.288899,0.0133447 0.536201,0.0474163 0.742051,0.0993754 0.245883,0.0636003 0.482965,0.164395 0.712522,0.303663 0.164395,0.0902897 0.373368,0.282794 0.628053,0.577655 0.151193,0.213231 0.263771,0.417661 0.339296,0.611727 0.124361,0.303663 0.186542,0.657723 0.186542,1.0636 0,0.404316 -0.0621806,0.759938 -0.186542,1.06658 -0.0755253,0.191085 -0.188104,0.393953 -0.339296,0.607326 -0.254685,0.29912 -0.463657,0.493186 -0.628053,0.582056 -0.229557,0.139268 -0.466639,0.239921 -0.712522,0.303663 -0.205849,0.0518172 -0.453152,0.0858888 -0.742051,0.100795 -0.00596253,0 -0.315588,-0.00156161 -0.928734,-0.00454288l0 1.79983c0,0.202868 -0.0785066,0.303663 -0.2341,0.303663l-1.04131 0c-0.151051,0 -0.226718,-0.124503 -0.226718,-0.376207l0 -6.67917z"/>
  <path id="1" class="fil6" d="M18.5808 11.8484c0,-0.853209 0.346536,-1.54344 1.03691,-2.06928 0.466497,-0.312607 0.949461,-0.46962 1.45017,-0.46962l0 0.00894379c0.0370528,-0.0133447 0.0621806,-0.0208688 0.0739637,-0.0208688 0.288899,0.0133447 0.536343,0.0474163 0.742193,0.0993754 0.245883,0.0636003 0.482965,0.164395 0.71096,0.303663 0.164537,0.0902897 0.374787,0.282794 0.629614,0.577655 0.151051,0.213231 0.263629,0.417661 0.337735,0.611727 0.124361,0.303663 0.186684,0.700739 0.186684,1.18952l0 1.87379c0,0.488785 -0.0623226,0.887281 -0.186684,1.19392 -0.0741057,0.191085 -0.186684,0.392533 -0.337735,0.607326 -0.254827,0.2977 -0.465077,0.491766 -0.629614,0.582198 -0.227996,0.137706 -0.465077,0.239921 -0.71096,0.303663 -0.205849,0.0518172 -0.453294,0.0843272 -0.742193,0.0992335 -0.0117831,0 -0.0369109,-0.00738218 -0.0739637,-0.0222885l0 0.00894379c-0.50071,0 -0.983675,-0.155594 -1.45017,-0.468058 -0.690375,-0.5274 -1.03691,-1.21763 -1.03691,-2.07539l0 -2.33447zm3.65432 0.109597c0,-0.666525 -0.273992,-1.06502 -0.820699,-1.19833 -0.0458547,-0.0147644 -0.133305,-0.0222885 -0.259228,-0.0222885 -0.469478,0 -0.796849,0.214793 -0.981971,0.642959 -0.028251,0.109597 -0.0549404,0.244464 -0.0770869,0.402896l0 2.46479c0.0221465,0.162976 0.0488359,0.297842 0.0770869,0.404458 0.185122,0.431005 0.512493,0.645798 0.981971,0.645798 0.125923,0 0.213373,-0.00582056 0.259228,-0.0207269 0.546707,-0.136286 0.820699,-0.537621 0.820699,-1.20273l0 -2.11684z"/>
  <path id="12" class="fil6" d="M29.166 14.2526l0 0.0918513c0,0.783504 -0.333192,1.42944 -0.998297,1.93598 -0.465219,0.309625 -0.949603,0.463657 -1.44875,0.463657l0 -0.00894379c-0.0384725,0.0149063 -0.0621806,0.0222885 -0.0741057,0.0222885 -0.290318,-0.0147644 -0.537621,-0.0474163 -0.742051,-0.100795 -0.245883,-0.0636003 -0.482965,-0.164395 -0.712522,-0.303663 -0.164395,-0.08887 -0.374787,-0.281374 -0.629472,-0.576236 -0.149631,-0.211812 -0.262209,-0.41468 -0.337735,-0.607326 -0.112578,-0.278393 -0.174901,-0.630892 -0.186684,-1.05906 0.0117831,-0.108177 0.0844691,-0.183703 0.216213,-0.231119l1.05026 0c0.148211,0 0.231119,0.0918513 0.247445,0.274134l0 -0.0519592c0,0.722885 0.273992,1.15105 0.820557,1.28436 0.0459966,0.0147644 0.133305,0.0221465 0.26079,0.0221465 0.38217,0 0.68129,-0.111017 0.897644,-0.33021 0.136286,-0.139268 0.204429,-0.287479 0.204429,-0.447473 0,-0.0946906 -0.0252698,-0.196905 -0.0741057,-0.303663 -0.130324,-0.276974 -0.745174,-0.546565 -1.84427,-0.807212 -1.09909,-0.26079 -1.66198,-0.817718 -1.68867,-1.67093 -0.00141965,-0.0310903 -0.0028393,-0.0637422 -0.0028393,-0.0948326 0,-0.810194 0.331772,-1.46792 0.996878,-1.97445 0.463657,-0.309625 0.902045,-0.465219 1.3153,-0.465219l0.0133447 0c0.419222,0.00298126 0.731829,0.0310903 0.937678,0.0830495 0.245883,0.0636003 0.482965,0.164395 0.71096,0.303663 0.164537,0.0902897 0.374787,0.282794 0.629614,0.577655 0.151051,0.213231 0.263629,0.417661 0.337735,0.611727 0.124361,0.303663 0.186684,0.628053 0.186684,0.97175l0 0.152612c0,0.124361 -0.0711244,0.21025 -0.216355,0.259228l-1.05026 0c-0.148069,0 -0.229557,-0.0904317 -0.247303,-0.272573l0 -0.0430154c0,-0.666525 -0.273992,-1.06502 -0.820699,-1.19833 -0.0458547,-0.0147644 -0.133305,-0.0222885 -0.259228,-0.0222885 -0.527258,0 -0.844265,0.17192 -0.950881,0.512635 -0.0519592,0.161414 -0.0785066,0.300682 -0.0785066,0.416241 0,0.130324 0.03251,0.232539 0.0962522,0.303663 0.118541,0.139126 0.715503,0.348098 1.78933,0.628053 1.07553,0.278393 1.62507,0.830921 1.65162,1.6546z"/>
  <path id="123" class="fil6" d="M32.7597 10.7937l0 5.63331c0,0.20301 -0.0785066,0.303663 -0.2341,0.303663l-1.04273 0c-0.149631,0 -0.225156,-0.125923 -0.225156,-0.377769l0 -5.5636 -1.34952 0c-0.202868,-0.00156161 -0.303663,-0.0814879 -0.303663,-0.238501l0 -1.04131c0,-0.14665 0.121522,-0.220755 0.364424,-0.220755l0.0384725 0 4.01874 0.00440091 0.0266894 0c0.251846,0 0.377769,0.0741057 0.377769,0.225156l0 1.04131c0,0.157013 -0.102215,0.2341 -0.303663,0.2341l-1.36726 0z"/>
  <path id="1234" class="fil6" d="M38.6921 13.0379l-1.61897 -3.33291c-0.0370528,-0.103776 -0.0563601,-0.186684 -0.0563601,-0.247445 0,-0.103634 0.0489779,-0.155452 0.14665,-0.155452l1.04287 0c0.152612,0 0.271011,0.100653 0.35548,0.303663l0.884299 1.86045 0.88146 -1.86045c0.0843272,-0.20301 0.202868,-0.303663 0.35548,-0.303663l1.04287 0c0.0946906,0 0.142107,0.0503975 0.142107,0.151051 0,0.0637422 -0.0177456,0.148069 -0.0562181,0.251846l-1.61911 3.33731 0 3.41582c0,0.201448 -0.076945,0.303663 -0.233958,0.303663l-1.04145 0c-0.151051,0 -0.225156,-0.125923 -0.225156,-0.377769l0 -3.34611z"/>
  <path id="12345" class="fil6" d="M42.3021 11.8484c0,-0.853209 0.346536,-1.54344 1.03691,-2.06928 0.466497,-0.312607 0.949461,-0.46962 1.45017,-0.46962l0 0.00894379c0.0370528,-0.0133447 0.0621806,-0.0208688 0.0739637,-0.0208688 0.288899,0.0133447 0.536343,0.0474163 0.742193,0.0993754 0.245883,0.0636003 0.482965,0.164395 0.71096,0.303663 0.164537,0.0902897 0.374787,0.282794 0.629614,0.577655 0.151051,0.213231 0.263629,0.417661 0.337735,0.611727 0.124361,0.303663 0.186684,0.700739 0.186684,1.18952l0 1.87379c0,0.488785 -0.0623226,0.887281 -0.186684,1.19392 -0.0741057,0.191085 -0.186684,0.392533 -0.337735,0.607326 -0.254827,0.2977 -0.465077,0.491766 -0.629614,0.582198 -0.227996,0.137706 -0.465077,0.239921 -0.71096,0.303663 -0.205849,0.0518172 -0.453294,0.0843272 -0.742193,0.0992335 -0.0117831,0 -0.0369109,-0.00738218 -0.0739637,-0.0222885l0 0.00894379c-0.50071,0 -0.983675,-0.155594 -1.45017,-0.468058 -0.690375,-0.5274 -1.03691,-1.21763 -1.03691,-2.07539l0 -2.33447zm3.65432 0.109597c0,-0.666525 -0.273992,-1.06502 -0.820699,-1.19833 -0.0458547,-0.0147644 -0.133305,-0.0222885 -0.259228,-0.0222885 -0.469478,0 -0.796849,0.214793 -0.981971,0.642959 -0.028251,0.109597 -0.0549404,0.244464 -0.0770869,0.402896l0 2.46479c0.0221465,0.162976 0.0488359,0.297842 0.0770869,0.404458 0.185122,0.431005 0.512493,0.645798 0.981971,0.645798 0.125923,0 0.213373,-0.00582056 0.259228,-0.0207269 0.546707,-0.136286 0.820699,-0.537621 0.820699,-1.20273l0 -2.11684z"/>
  <path id="123456" class="fil6" d="M50.4315 16.7307c-0.287479,-0.0147644 -0.533362,-0.0474163 -0.737792,-0.0992335 -0.245883,-0.0637422 -0.484384,-0.165957 -0.71238,-0.303663 -0.164537,-0.0902897 -0.374787,-0.282936 -0.629614,-0.577655 -0.152612,-0.213373 -0.26519,-0.417803 -0.337735,-0.611869 -0.124361,-0.303663 -0.186684,-0.700597 -0.186684,-1.18938l0 -4.40389c0,-0.124503 0.072686,-0.211812 0.216355,-0.260648l1.04571 0c0.148211,0 0.232539,0.0902897 0.251846,0.272431l0 4.51349c0,0.666667 0.273992,1.06502 0.820699,1.19847 0.0458547,0.0147644 0.133305,0.0221465 0.260648,0.0221465 0.468058,0 0.795429,-0.214793 0.980552,-0.642817 0.028251,-0.109597 0.0547985,-0.244464 0.0785066,-0.404458l0 -4.59044c0,-0.245883 0.0860307,-0.368825 0.259228,-0.368825l1.02513 0c0.0858888,0 0.158433,0.0547985 0.216213,0.164395 0.00894379,0.0266894 0.0133447,0.0547985 0.0133447,0.0873084l0 4.64381c0,0.853351 -0.345117,1.545 -1.03691,2.07382 -0.466639,0.312607 -0.949461,0.468058 -1.45017,0.468058l0 -0.0117831c-0.0370528,0.0133447 -0.0637422,0.0207269 -0.076945,0.0207269z"/>
  <path id="1234567" class="fil6" d="M55.4782 13.1726c0.407297,-0.00298126 0.631034,-0.0103634 0.672488,-0.0221465 0.546565,-0.136286 0.819138,-0.534782 0.819138,-1.19691 0,-0.663686 -0.272573,-1.06062 -0.819138,-1.19392 -0.0474163,-0.0147644 -0.133305,-0.0222885 -0.260648,-0.0222885l-0.942079 0 0 2.43527 0.530239 0zm-0.530239 1.43683l0 1.79983c0,0.202868 -0.0785066,0.303663 -0.2341,0.303663l-1.04131 0c-0.151051,0 -0.226718,-0.124503 -0.226718,-0.376207l0 -6.67917c0,-0.248864 0.0756673,-0.373226 0.226718,-0.373226l1.03691 0c0.0370528,0 0.0755253,0.00582056 0.112578,0.0177456 0.697616,-0.00298126 1.04869,-0.00454288 1.05466,-0.00454288 0.288899,0.0133447 0.536201,0.0474163 0.742051,0.0993754 0.245883,0.0636003 0.482965,0.164395 0.712522,0.303663 0.164395,0.0902897 0.373368,0.282794 0.628053,0.577655 0.151193,0.213231 0.263771,0.417661 0.339296,0.611727 0.124361,0.303663 0.186542,0.657723 0.186542,1.0636 0,0.404316 -0.0621806,0.759938 -0.186542,1.06658 -0.0755253,0.191085 -0.188104,0.393953 -0.339296,0.607326 -0.0428734,0.0532368 -0.0843272,0.100653 -0.125923,0.143668 0.0992335,0.0932709 0.207411,0.20883 0.325951,0.348098 0.151051,0.213231 0.263629,0.417661 0.339154,0.611727 0.124503,0.303663 0.186684,0.699177 0.186684,1.18796l0 0.586599c0,0.124503 -0.0725441,0.210392 -0.217774,0.26079l-1.05026 0c-0.14665,0 -0.229557,-0.0918513 -0.247303,-0.274134l0 -0.694634c0,-0.665106 -0.272573,-1.0636 -0.820699,-1.19691 -0.00440091,-0.00298126 -0.060619,-0.00454288 -0.164395,-0.00454288 -0.21025,0 -0.623652,0.00454288 -1.2368,0.0133447z"/>
  <path class="fil7" d="M7.74333 23.2814c0.0617547,-0.00922772 0.12791,-0.0140545 0.200738,-0.0144804l5.02698 -0.0577797c0.375071,-0.00440091 0.563317,0.10477 0.566724,0.329784l0.016326 1.55054c0.00354912,0.231687 -0.145656,0.349376 -0.447757,0.353635l-3.49617 0.0393243 0.0227144 1.89921 3.38601 -0.0387564c0.374929,-0.0024134 0.563033,0.106758 0.564452,0.329643l0.0184554 1.55068c0.00369109,0.233674 -0.145656,0.351647 -0.447757,0.355764l-3.49617 0.0393243 0.04841 4.25071c0.00411698,0.301959 -0.109597,0.454856 -0.343413,0.456417l-1.55082 0.0185974c-0.222743,0.00127768 -0.338586,-0.183419 -0.340858,-0.558348l-0.114708 -9.93712c-0.00454288,-0.375071 0.104486,-0.563175 0.329501,-0.566724l0.0573538 -0.000425895z"/>
  <path id="1" class="fil7" d="M17.3282 28.9705c0.606758,-0.0102215 0.939666,-0.0255537 1.00142,-0.0437252 0.810478,-0.210108 1.21039,-0.810478 1.19989,-1.79642 -0.0106474,-0.985946 -0.424617,-1.57467 -1.24191,-1.76363 -0.0685691,-0.0194492 -0.198609,-0.0296707 -0.388416,-0.0262635l-1.40077 0.0153322 0.040318 3.62408 0.789467 -0.00936968zm-0.765333 2.14906l0.032226 2.68001c0.00411698,0.302243 -0.111868,0.45514 -0.343413,0.456559l-1.55082 0.0184554c-0.225014,0.00141965 -0.338586,-0.183135 -0.343129,-0.558206l-0.114708 -9.94365c-0.0024134,-0.37067 0.106758,-0.556644 0.329501,-0.560194l1.54642 -0.0185974c0.0550824,-0.00028393 0.110307,0.00837593 0.167803,0.0255537 1.03663,-0.0174617 1.56161,-0.0251278 1.57042,-0.0252698 0.430296,0.0171778 0.798979,0.0611869 1.10605,0.13657 0.366695,0.0904317 0.720614,0.235946 1.06374,0.438956 0.247871,0.130892 0.563033,0.415673 0.947332,0.850086 0.22686,0.316156 0.398637,0.617405 0.515049,0.905736 0.190375,0.448751 0.288473,0.975299 0.294435,1.57979 0.00823396,0.602215 -0.0789325,1.13217 -0.259228,1.59214 -0.108461,0.285208 -0.272005,0.588445 -0.49276,0.909569 -0.0636003,0.0776548 -0.124929,0.150909 -0.186258,0.215219 0.148637,0.13586 0.313033,0.306928 0.490773,0.510932 0.229131,0.316298 0.398637,0.619677 0.515049,0.905736 0.190375,0.450881 0.288899,1.03933 0.297842,1.76732l0.00979558 0.873368c0.00340716,0.185264 -0.103918,0.314026 -0.317434,0.390262l-1.56389 0.0185974c-0.220613,0.00141965 -0.344975,-0.132453 -0.373084,-0.403606l-0.0130608 -1.03223c-0.0106474,-0.992619 -0.424617,-1.58135 -1.23978,-1.7703 -0.00880182,-0.00440091 -0.0925611,-0.00610449 -0.247019,-0.00298126 -0.313175,0.00198751 -0.928734,0.0167519 -1.84185,0.0401761z"/>
  <path id="12" class="fil7" d="M22.8911 23.1873c0.0617547,-0.00922772 0.12791,-0.0140545 0.200738,-0.0144804l5.02698 -0.0577797c0.375071,-0.00440091 0.563317,0.10477 0.566724,0.329784l0.016326 1.55054c0.00354912,0.231687 -0.145656,0.349376 -0.447757,0.353635l-3.49617 0.0393243 0.0227144 1.89921 3.38601 -0.0387564c0.374929,-0.0024134 0.563033,0.106758 0.564452,0.329643l0.0184554 1.55068c0.00369109,0.233674 -0.145656,0.351647 -0.447757,0.355764l-3.49617 0.0393243 0.0285349 2.48155 3.51619 -0.0417377c0.3728,-0.00227144 0.563175,0.1069 0.564594,0.329643l0.0183135 1.55068c0.00156161,0.233816 -0.147785,0.351647 -0.447757,0.355764l-5.24759 0.0589154c-0.0550824,0.000425895 -0.108035,-0.00369109 -0.1546,-0.00993754l-0.123509 0.000851789c-0.222743,0.00127768 -0.338586,-0.183419 -0.340858,-0.558348l-0.114708 -9.93712c-0.00454288,-0.375071 0.104486,-0.563175 0.329501,-0.566724l0.0573538 -0.000425895z"/>
  <path id="123" class="fil7" d="M29.6499 23.1452c0.0617547,-0.00922772 0.12791,-0.0140545 0.200738,-0.0144804l5.02698 -0.0577797c0.375071,-0.00440091 0.563317,0.10477 0.566724,0.329784l0.016326 1.55054c0.00354912,0.231687 -0.145656,0.349376 -0.447757,0.353635l-3.49617 0.0393243 0.0227144 1.89921 3.38601 -0.0387564c0.374929,-0.0024134 0.563033,0.106758 0.564452,0.329643l0.0184554 1.55068c0.00369109,0.233674 -0.145656,0.351647 -0.447757,0.355764l-3.49617 0.0393243 0.0285349 2.48155 3.51619 -0.0417377c0.3728,-0.00227144 0.563175,0.1069 0.564594,0.329643l0.0183135 1.55068c0.00156161,0.233816 -0.147785,0.351647 -0.447757,0.355764l-5.24759 0.0589154c-0.0550824,0.000425895 -0.108035,-0.00369109 -0.1546,-0.00993754l-0.123509 0.000851789c-0.222743,0.00127768 -0.338586,-0.183419 -0.340858,-0.558348l-0.114708 -9.93712c-0.00454288,-0.375071 0.104486,-0.563175 0.329501,-0.566724l0.0573538 -0.000425895z"/>
  <path id="1234" class="fil7" d="M42.3197 31.4603l-0.522289 2.20926c-0.0841852,0.302669 -0.241908,0.455849 -0.473595,0.457269l-1.56403 0.0187394c-0.16326,0.000993754 -0.245457,-0.0979558 -0.248864,-0.300824 -0.000425895,-0.0816298 0.012067,-0.180863 0.0356332,-0.297984l2.42036 -9.88885c0.0724021,-0.402045 0.225582,-0.603635 0.457127,-0.605196l2.32723 -0.0275412c0.231545,-0.00369109 0.38941,0.196054 0.471465,0.594833l2.63317 9.83093c0.0271153,0.116837 0.0410279,0.215929 0.0414538,0.297558 0.00354912,0.20301 -0.0775128,0.304941 -0.240772,0.305934l-1.55054 0.0185974c-0.233958,0.00141965 -0.393527,-0.147644 -0.483816,-0.447048l-0.573964 -2.19804 -2.72857 0.032368zm2.15233 -2.25454l-0.851931 -3.25951 -0.77598 3.2784 1.62791 -0.0188813z"/>
  <path id="12345" class="fil7" d="M50.1627 34.0743l-1.30366 0.0147644c-0.225014,0.00141965 -0.338586,-0.183277 -0.343129,-0.558206l-0.112436 -9.93953c-0.00454288,-0.372658 0.104486,-0.563033 0.327229,-0.564452l1.30594 -0.0147644c1.31019,-0.0190233 1.96976,-0.0298126 1.97857,-0.0299546 0.430296,0.0171778 0.798979,0.0611869 1.10605,0.13657 0.366695,0.0904317 0.720614,0.235946 1.06374,0.438956 0.247871,0.130892 0.563033,0.415673 0.947332,0.850086 0.22686,0.316156 0.398637,0.617405 0.515049,0.905736 0.190375,0.448751 0.288899,1.03933 0.297842,1.76732l0.0306644 2.79032c0.00894379,0.727854 -0.0756673,1.32169 -0.255821,1.77953 -0.108603,0.285208 -0.274418,0.588445 -0.495316,0.909711 -0.37209,0.447899 -0.68129,0.741057 -0.925327,0.877201 -0.338444,0.21167 -0.690375,0.365986 -1.05594,0.465361 -0.304089,0.0812039 -0.672062,0.134299 -1.10207,0.161272 -0.00880182,0.000141965 -0.668371,0.00425895 -1.97871,0.0144804l0 -0.00440091zm0.493754 -8.93059l0.0775128 6.78947 1.40077 -0.0153322c0.189665,-0.00113572 0.319705,-0.0130608 0.38799,-0.0356332 0.812607,-0.212238 1.21266,-0.814879 1.20202,-1.80523l-0.0370528 -3.15205c-0.0107893,-0.990489 -0.424759,-1.58135 -1.24205,-1.7703 -0.0685691,-0.0194492 -0.198609,-0.0296707 -0.388416,-0.0262635l-1.40077 0.0153322z"/>
  <path id="123456" class="fil7" d="M64.1757 30.2658l0.00312323 0.136712c0.0137706,1.16681 -0.472175,2.13175 -1.45329,2.89878 -0.687678,0.46749 -1.40531,0.70585 -2.15091,0.714935l-0.000141965 -0.0133447c-0.0549404,0.0224305 -0.0922772,0.0336457 -0.109881,0.0337876 -0.430296,-0.0171778 -0.798979,-0.0611869 -1.10605,-0.13657 -0.366837,-0.0902897 -0.722885,-0.235804 -1.06389,-0.438814 -0.247871,-0.131034 -0.562891,-0.413544 -0.94719,-0.850086 -0.227002,-0.311897 -0.398779,-0.610875 -0.515191,-0.896934 -0.172345,-0.411414 -0.270443,-0.935833 -0.294293,-1.57311 0.0144804,-0.161272 0.121806,-0.276548 0.317717,-0.34611l1.56389 -0.0185974c0.220613,-0.00354912 0.344975,0.132311 0.373084,0.401335l-0.00056786 -0.0772289c0.0112152,1.07865 0.427598,1.71139 1.2429,1.89821 0.0682851,0.0217206 0.198609,0.0318001 0.388416,0.0285349 0.568995,-0.00582056 1.01136,-0.173907 1.33135,-0.506815 0.199461,-0.208546 0.299546,-0.431999 0.295997,-0.667945 -0.000993754,-0.141255 -0.0394662,-0.2933 -0.115417,-0.45159 -0.198893,-0.411414 -1.1167,-0.800398 -2.75809,-1.16979 -1.6414,-0.369109 -2.48907,-1.18896 -2.54344,-2.45926 -0.00468484,-0.0462806 -0.00709825,-0.0946906 -0.00738218,-0.140971 -0.0141965,-1.2067 0.469478,-2.1935 1.45301,-2.95841 0.683277,-0.46749 1.33234,-0.705424 1.95003,-0.713658l0.0176036 -0.000141965c0.624362,-0.00170358 1.09001,0.0329359 1.39708,0.108177 0.368967,0.0904317 0.722743,0.236088 1.06601,0.439097 0.245741,0.13075 0.562891,0.413402 0.94719,0.847673 0.227002,0.316298 0.398779,0.619677 0.513061,0.905736 0.190233,0.451164 0.288189,0.931432 0.295713,1.4452l0.00141965 0.225014c0.00326519,0.185406 -0.103918,0.316156 -0.317434,0.392533l-1.56389 0.0185974c-0.220613,0.00127768 -0.344975,-0.132453 -0.373226,-0.403606l-0.00028393 -0.0640262c-0.0127768,-0.992619 -0.426747,-1.58135 -1.24191,-1.7703 -0.0706985,-0.0215787 -0.198751,-0.0295287 -0.388416,-0.028393 -0.783078,0.00922772 -1.25355,0.26803 -1.40716,0.778536 -0.0733959,0.243186 -0.109597,0.450739 -0.108461,0.6228 0.00113572,0.194208 0.0506815,0.343697 0.148353,0.449035 0.17774,0.206275 1.07084,0.507383 2.67476,0.903323 1.60406,0.39807 2.43413,1.21139 2.48581,2.43768z"/>
 </g>
</svg>
