<?xml version="1.0" encoding="UTF-8"?>
<!DOCTYPE svg PUBLIC "-//W3C//DTD SVG 1.1//EN" "http://www.w3.org/Graphics/SVG/1.1/DTD/svg11.dtd">
<!-- Creator: CorelDRAW -->
<svg xmlns="http://www.w3.org/2000/svg" xml:space="preserve" width="169.625mm" height="63.4358mm" style="shape-rendering:geometricPrecision; text-rendering:geometricPrecision; image-rendering:optimizeQuality; fill-rule:evenodd; clip-rule:evenodd"
viewBox="0 0 153.313 57.3354"
 xmlns:xlink="http://www.w3.org/1999/xlink">
 <defs>
  <style type="text/css">
   <![CDATA[
    .fil8 {fill:#B8BEBE}
    .fil12 {fill:#E63037}
    .fil10 {fill:#E63546}
    .fil11 {fill:#EC6C32}
    .fil9 {fill:#FCC132}
    .fil6 {fill:#A02422}
    .fil1 {fill:#AB2422}
    .fil5 {fill:#E31F28}
    .fil3 {fill:#E41F2A}
    .fil4 {fill:#E52E30}
    .fil7 {fill:#E84748}
    .fil0 {fill:#EBECEC}
    .fil15 {fill:#FF6E01}
    .fil13 {fill:#29ABE2}
    .fil14 {fill:#931E5A}
    .fil2 {fill:#2B2A29;fill-rule:nonzero}
    .fil16 {fill:#727271;fill-rule:nonzero}
   ]]>
  </style>
 </defs>
 <g id="Layer_x0020_1">
  <metadata id="CorelCorpID_0Corel-Layer"/>
  <path class="fil0" d="M23.2893 6.49893c10.5244,1.13937 18.7175,10.0518 18.7175,20.8792 0,10.8273 -8.19308,19.7397 -18.7175,20.8791l0 -5.8714c7.34582,-1.24205 12.941,-7.6336 12.941,-15.3329 0,-7.69931 -5.59519,-14.0909 -12.941,-15.3329l0 -5.22109zm-5.59853 41.6216c-10.0258,-1.58858 -17.6907,-10.2698 -17.6907,-20.7424 0,-10.4726 7.66497,-19.1539 17.6907,-20.7425l0 5.15276c-7.15981,1.39326 -12.565,7.69714 -12.565,15.2645 0,7.56735 5.4052,13.8712 12.565,15.2645l0 5.80307z"/>
  <path class="fil1" d="M17.6907 48.1205c-10.0258,-1.58858 -17.6907,-10.2698 -17.6907,-20.7424 0,-10.4726 7.66497,-19.1539 17.6907,-20.7425l0 5.15276c-7.15981,1.39326 -12.565,7.69714 -12.565,15.2645 0,7.56735 5.4052,13.8712 12.565,15.2645l0 5.80307z"/>
  <path class="fil2" d="M10.7103 20.4074l-0.573031 -0.23337c-0.220084,-0.0934564 -0.435919,-0.202549 -0.652116,-0.326736 -0.212039,-0.124096 -0.321855,-0.280008 -0.321855,-0.465655 0,-0.140456 0.0588396,-0.28064 0.168746,-0.420464l2.92607 -3.19478c0.156634,-0.170825 0.274404,-0.291396 0.353128,-0.361353 0.078272,-0.0699568 0.188178,-0.104935 0.32999,-0.104935 0.580985,0 1.18981,0.086045 1.82584,0.25687 0.63639,0.170734 0.954539,0.458515 0.954539,0.862619 0,0.155098 -0.0234093,0.325832 -0.0711317,0.513197 -0.0468186,0.186099 -0.0939084,0.36542 -0.141269,0.535793l-3.53426 12.4066c-0.0784528,0.326736 -0.219993,0.535974 -0.42435,0.62943 -0.20047,0.0933661 -0.506057,0.140094 -0.91468,0.140094 -0.498645,0 -1.03706,-0.0695952 -1.60593,-0.20978 -0.573573,-0.139823 -0.856383,-0.38892 -0.856383,-0.746296 0,-0.264281 0.0396783,-0.544289 0.117498,-0.83912 0.0788143,-0.295825 0.165311,-0.591559 0.255604,-0.886842l1.45689 -5.20003 0.706708 -2.35521z"/>
  <path class="fil2" d="M18.9003 30.8997l0.95002 0.0206074 1.15627 -0.0413052 0.639915 -0.0202459c0.412691,0 0.619217,0.184201 0.619217,0.551248 0,0.259672 -0.0715837,0.61289 -0.216016,1.06327 -0.144704,0.449657 -0.279104,0.746025 -0.4032,0.888559 -0.123283,0.142896 -0.251085,0.238703 -0.38187,0.286064 -0.131237,0.048807 -0.299711,0.086045 -0.505966,0.11316 -0.206616,0.0260304 -0.560468,0.0478128 -1.06345,0.0606473 -0.50208,0.0141902 -0.877623,0.0203363 -1.12545,0.0203363l-1.23852 0 -1.0949 -0.0613703c-0.219541,-0.013196 -0.419741,-0.040311 -0.598971,-0.0813451 -0.178236,-0.0401302 -0.346711,-0.180405 -0.505514,-0.419741 -0.158171,-0.236985 -0.313359,-0.540854 -0.464661,-0.901394 -0.151211,-0.361714 -0.226772,-0.66477 -0.226772,-0.909257 0,-0.164679 0.268439,-0.474151 0.804864,-0.924442 0.536877,-0.448392 1.50027,-1.51808 2.891,-3.20509 1.39028,-1.68475 2.08533,-2.86651 2.08533,-3.55162 0,-0.341378 -0.16504,-0.511299 -0.495572,-0.511299 -0.247289,0 -0.460955,0.0887565 -0.639734,0.266179 -0.17923,0.17679 -0.334328,0.377893 -0.465113,0.606473 -0.129791,0.227224 -0.261027,0.371205 -0.391812,0.42905 -0.130694,0.0568512 -0.299531,0.0876719 -0.506237,0.0876719 -0.41251,0 -0.771332,-0.00912872 -1.07357,-0.0308207 -0.302513,-0.0196132 -0.557756,-0.0706798 -0.764011,-0.145517 -0.206074,-0.078724 -0.310015,-0.249639 -0.310015,-0.514101 0,-0.32068 0.05893,-0.616596 0.175434,-0.889915 0.117318,-0.2688 0.472073,-0.820501 1.06318,-1.65149 0.592463,-0.828002 1.72144,-1.2434 3.38685,-1.2434 1.07403,0 1.90393,0.275579 2.48835,0.827912 0.585233,0.55161 0.878075,1.34509 0.878075,2.38052 0,0.818512 -0.241414,1.67255 -0.722977,2.56508 -0.481834,0.892355 -1.06354,1.74322 -1.74476,2.55469 -0.68131,0.809926 -1.41432,1.6044 -2.19939,2.38088z"/>
  <path class="fil2" d="M28.9682 31.4974c1.01528,0.648501 1.52332,1.53462 1.52332,2.65827 0,1.21719 -0.461136,2.23835 -1.38323,3.06499 -0.92173,0.826285 -2.00488,1.2397 -3.24648,1.2397 -1.06896,0 -1.96078,-0.31119 -2.67598,-0.932395 -0.714933,-0.621205 -1.07249,-1.45472 -1.07249,-2.49955 0,-1.01799 0.508136,-1.52739 1.52016,-1.52739 0.263739,0 0.53751,0.0624549 0.821404,0.18863 0.284165,0.125181 0.424441,0.307394 0.424441,0.544922l0 0.377712c-0.027115,0.277025 0.0432033,0.51853 0.210865,0.724423 0.166486,0.20499 0.397054,0.307213 0.690258,0.307213 0.454809,0 0.805768,-0.17209 1.05288,-0.515637 0.247289,-0.343819 0.370753,-0.747832 0.370753,-1.21114 0,-0.369126 -0.113612,-0.650218 -0.340655,-0.842373 -0.227405,-0.191342 -0.517174,-0.347434 -0.871929,-0.466107 -0.354032,-0.118945 -0.517535,-0.283985 -0.491143,-0.495301 0.0401302,-0.397325 0.107195,-0.757684 0.20029,-1.08135 0.0940891,-0.324386 0.207249,-0.582431 0.340655,-0.773682 0.133677,-0.191974 0.264462,-0.298446 0.391451,-0.317155 0.127169,-0.0200651 0.250001,-0.0299169 0.370662,-0.0299169 0.360268,-0.0401302 0.674531,-0.175253 0.941614,-0.407177 0.267535,-0.231472 0.40085,-0.519072 0.40085,-0.862529 0,-0.211678 -0.0562185,-0.394072 -0.170192,-0.545283 -0.113702,-0.152567 -0.270066,-0.22867 -0.470265,-0.22867 -0.335142,0 -0.602586,0.132412 -0.802424,0.397325l-0.300615 0.376628c-0.107014,0.119577 -0.227405,0.194595 -0.361082,0.228489 -0.133406,0.0324476 -0.306942,0.0486263 -0.520608,0.0486263l-0.240691 0c-0.360811,0 -0.721531,-0.0486263 -1.08189,-0.148681 -0.361172,-0.0988795 -0.541849,-0.287419 -0.541849,-0.564987 0,-0.171186 0.0639011,-0.367409 0.191071,-0.584961 0.126989,-0.218547 0.343638,-0.506147 0.651212,-0.863433 0.454357,-0.488793 0.984908,-0.856202 1.59337,-1.09997 0.607919,-0.245301 1.26564,-0.367499 1.97406,-0.367499 0.962131,0 1.76383,0.254972 2.40492,0.76383 0.641722,0.509401 0.962312,1.2331 0.962312,2.17218 0,0.93827 -0.267173,1.68972 -0.80152,2.25109 -0.534528,0.562366 -1.08957,0.903473 -1.66351,1.02115z"/>
  <polygon class="fil1" points="52.6747,48.2357 44.3203,43.4124 44.3203,4.82331 52.6747,0 "/>
  <polygon class="fil3" points="61.0295,24.1178 52.6747,19.2945 52.6747,28.9418 "/>
  <polygon class="fil3" points="61.0295,43.4124 52.6747,48.2357 52.6747,38.5885 61.0295,33.7652 "/>
  <polygon class="fil1" points="64.8096,38.521 64.8096,14.403 73.1637,9.57974 73.1637,33.6969 "/>
  <path class="fil4" d="M136.604 38.5349l0.0193421 -9.62556c-8.36706,-4.83081 -8.38261,-4.80325 -16.7288,-9.66877l0 9.64707 16.7095 9.64725z"/>
  <polygon class="fil5" points="136.604,38.5349 144.959,33.7103 136.586,28.8876 136.604,19.2404 153.313,28.8876 153.313,38.5349 136.604,48.1815 "/>
  <polygon class="fil6" points="136.604,9.59302 136.604,19.2605 144.959,24.0637 153.313,19.2404 "/>
  <polygon class="fil7" points="119.895,19.2404 128.249,24.0637 136.604,19.2605 136.604,9.59302 "/>
  <polygon class="fil6" points="136.604,38.5349 128.249,33.7103 119.895,38.5349 136.604,48.1815 "/>
  <path class="fil3" d="M73.1637 33.6969l7.08705 -4.09121c-1.91251,-2.04158 -3.19053,-4.68421 -3.52107,-7.61399l-3.56599 2.05857 0 9.64662z"/>
  <polygon class="fil1" points="114.937,38.521 114.937,14.403 106.583,9.57974 106.583,33.6969 "/>
  <path class="fil3" d="M106.583 33.6969l-6.92689 -3.99847c1.9314,-2.02305 3.2332,-4.65203 3.59238,-7.57277l3.33388 1.92462 0.000632684 9.64662z"/>
  <path class="fil8" d="M97.3086 13.6541c-1.45915,-1.62771 -3.41288,-2.73066 -5.56039,-3.13902l0.140185 -0.750544c2.31309,0.439625 4.41749,1.62735 5.98917,3.38034l-0.568964 0.50922z"/>
  <path class="fil8" d="M82.5558 13.6035l-0.565258 -0.513107c1.5668,-1.72343 3.65149,-2.89073 5.93964,-3.32584l0.140185 0.750544c-2.12437,0.404285 -4.05984,1.48825 -5.51456,3.0884z"/>
  <path class="fil8" d="M79.8274 23.8357c-0.405731,-1.1532 -0.608552,-2.35837 -0.608552,-3.56355 0,-1.20517 0.20282,-2.41034 0.608552,-3.56355l0.719542 0.25461c-0.752623,2.14173 -0.752623,4.47606 0,6.61778l-0.719542 0.2547z"/>
  <path class="fil8" d="M87.9302 30.7797c-2.09843,-0.392174 -4.0302,-1.40691 -5.54403,-2.91215l0.537691 -0.542481c1.4051,1.3976 3.19849,2.33985 5.14652,2.70409l-0.140185 0.750544z"/>
  <path class="fil8" d="M92.2847 30.6977l-0.169198 -0.744579c1.83948,-0.418294 3.52116,-1.3534 4.84708,-2.69541l0.54212 0.537329c-1.42779,1.44523 -3.23889,2.45237 -5.22,2.90266l0 0z"/>
  <path class="fil8" d="M99.9913 23.8357l-0.719542 -0.2547c0.664951,-1.89353 0.744398,-3.94343 0.227766,-5.88269l0.737529 -0.197578c0.556671,2.08831 0.471078,4.29601 -0.245752,6.33497z"/>
  <polygon class="fil9" points="98.309,14.1633 100.6,14.1633 100.6,16.4541 98.309,16.4541 "/>
  <polygon class="fil10" points="88.7639,8.81808 91.0547,8.81808 91.0547,11.1088 88.7639,11.1088 "/>
  <polygon class="fil11" points="79.2188,13.7815 81.5097,13.7815 81.5097,16.0723 79.2188,16.0723 "/>
  <polygon class="fil11" points="79.2188,24.8538 81.5097,24.8538 81.5097,27.1446 79.2188,27.1446 "/>
  <polygon class="fil10" points="88.7639,29.4354 91.0547,29.4354 91.0547,31.7262 88.7639,31.7262 "/>
  <polygon class="fil9" points="97.9272,24.8538 100.218,24.8538 100.218,27.1446 97.9272,27.1446 "/>
  <polygon class="fil3" points="81.5189,48.1682 89.8735,43.3449 98.2277,48.1682 114.937,38.521 106.583,33.6969 98.2277,38.521 89.8735,33.6969 81.5189,38.521 73.1637,33.6969 64.8096,38.521 "/>
  <g id="_285207856">
   <rect id="_285208720" class="fil12" transform="matrix(-0.668994 -0.55892 -0.38316 0.45862 96.2331 20.2549)" width="2.3516" height="9.6055" rx="2.04447" ry="2.04447"/>
   <rect id="_285208600" class="fil13" transform="matrix(-0.668994 0.539884 -0.38316 -0.443 96.2346 20.4905)" width="2.3516" height="9.6055" rx="2.01609" ry="2.01609"/>
   <path id="_285208432" class="fil14" d="M95.448 21.1253l0 0c-0.432665,0.349151 -1.08433,0.290583 -1.44821,-0.130152l-0.53742 -0.621386 0.540312 -0.646693c0.361443,-0.432665 1.01112,-0.490872 1.44369,-0.129429l0 0c0.0299169,0.0249458 0.0579358,0.0513378 0.084147,0.0788143l0.0423898 0.0490782c0.0178959,0.0206074 0.0347072,0.0417571 0.0505243,0.0633588 0.123012,0.172903 0.187094,0.377983 0.189534,0.5846 -0.00225959,0.281183 -0.126356,0.559202 -0.364968,0.751809z"/>
   <rect id="_285208312" class="fil14" transform="matrix(0.668994 -0.55892 0.38316 0.45862 84.0275 20.297)" width="2.3516" height="9.6055" rx="2.04447" ry="2.04447"/>
   <rect id="_285208192" class="fil12" transform="matrix(0.668994 0.539884 0.38316 -0.443 84.0259 20.5327)" width="2.3516" height="9.6055" rx="2.01609" ry="2.01609"/>
   <path id="_285208024" class="fil15" d="M84.8125 21.1674l0 0c0.432665,0.349151 1.08433,0.290583 1.44821,-0.130152l0.53742 -0.621296 -0.540312 -0.646693c-0.361443,-0.432665 -1.01112,-0.490872 -1.44378,-0.129429l0 0c-0.0298265,0.0249458 -0.0578454,0.0513378 -0.084147,0.0788143l-0.0423898 0.0489878c-0.0178055,0.0206978 -0.0346168,0.0418475 -0.0504339,0.0633588 -0.123012,0.172903 -0.187094,0.378074 -0.189534,0.5846 0.00225959,0.281183 0.126266,0.559202 0.364968,0.751809z"/>
   <rect id="_285207832" class="fil0" transform="matrix(0.2283 0.0298888 -0.054951 0.419734 90.3764 15.575)" width="4.38423" height="22.9575" rx="3.12157" ry="3.12157"/>
  </g>
  <path class="fil0" d="M90.0107 12.0856c4.4493,0 8.05614,3.60684 8.05614,8.05614 0,4.4493 -3.60684,8.05614 -8.05614,8.05614 -4.4493,0 -8.05614,-3.60684 -8.05614,-8.05614 0,-4.4493 3.60684,-8.05614 8.05614,-8.05614zm0 1.3139c3.72362,0 6.74224,3.01863 6.74224,6.74224 0,3.72362 -3.01863,6.74224 -6.74224,6.74224 -3.72362,0 -6.74224,-3.01863 -6.74224,-6.74224 0,-3.72362 3.01863,-6.74224 6.74224,-6.74224z"/>
  <path class="fil16" d="M46.8471 57.3354c0.199476,-0.00126537 0.385666,-0.0385033 0.55875,-0.112979 0.172994,-0.0733009 0.325561,-0.175434 0.456617,-0.307665 0.130966,-0.130966 0.233099,-0.282358 0.3064,-0.455352 0.0744759,-0.173084 0.111714,-0.359274 0.112889,-0.55875l0 -2.35042c-0.00117498,-0.198211 -0.038413,-0.383316 -0.112889,-0.55631 -0.0733009,-0.171819 -0.175434,-0.324476 -0.3064,-0.455442 -0.131056,-0.132141 -0.283623,-0.235449 -0.456617,-0.30875 -0.173084,-0.0745663 -0.359274,-0.112979 -0.55875,-0.114154 -0.199476,0.00117498 -0.385756,0.0395879 -0.55875,0.114154 -0.173084,0.0733009 -0.324476,0.176609 -0.455442,0.30875 -0.132231,0.130966 -0.234364,0.283623 -0.307665,0.455442 -0.0744759,0.172994 -0.111714,0.358099 -0.112889,0.55631l0 2.35042c0.00117498,0.199476 0.038413,0.385666 0.112889,0.55875 0.0733009,0.172994 0.175434,0.324386 0.307665,0.455352 0.130966,0.132231 0.282358,0.234364 0.455442,0.307665 0.172994,0.0744759 0.359274,0.111714 0.55875,0.112979zm0 -4.70798c0.12735,0.00117498 0.246295,0.025217 0.356834,0.0733009 0.111804,0.048084 0.209057,0.114154 0.294379,0.198301 0.084147,0.0853219 0.150217,0.182574 0.198301,0.294379 0.048084,0.110539 0.072126,0.229483 0.0733009,0.356834l0 2.35042c-0.00117498,0.12735 -0.025217,0.246295 -0.0733009,0.356834 -0.048084,0.111804 -0.114154,0.209147 -0.198301,0.294379 -0.0853219,0.084147 -0.182574,0.150217 -0.294379,0.198301 -0.110539,0.048084 -0.229483,0.072126 -0.356834,0.0733009 -0.128616,-0.00117498 -0.248735,-0.025217 -0.360539,-0.0733009 -0.110539,-0.048084 -0.209057,-0.114154 -0.293204,-0.198301 -0.0840566,-0.0852316 -0.150217,-0.182574 -0.197036,-0.294379 -0.046909,-0.110539 -0.0708606,-0.229483 -0.072126,-0.356834l0 -2.35042c0.00126537,-0.12735 0.025217,-0.246295 0.072126,-0.356834 0.0468186,-0.111804 0.112979,-0.209057 0.197036,-0.294379 0.084147,-0.084147 0.182665,-0.150217 0.293204,-0.198301 0.111804,-0.048084 0.231924,-0.072126 0.360539,-0.0733009z"/>
  <path id="1" class="fil16" d="M51.7473 57.3354c0.199476,-0.00126537 0.385756,-0.0396783 0.55875,-0.114154 0.173084,-0.0745663 0.325651,-0.1767 0.456617,-0.30884 0.130966,-0.130966 0.233099,-0.283623 0.3064,-0.456617 0.0745663,-0.171819 0.111804,-0.356924 0.112979,-0.555135l0 -3.52559c-0.00244035,-0.0744759 -0.0264823,-0.135756 -0.0744759,-0.18384 -0.048084,-0.049259 -0.107014,-0.0744759 -0.177875,-0.0756509 -0.0733009,0.00117498 -0.134581,0.026392 -0.18384,0.0756509 -0.048084,0.048084 -0.0733009,0.109364 -0.0757413,0.18384l0 3.52559c-0.00117498,0.170644 -0.0432033,0.324386 -0.12491,0.461407 -0.0817066,0.138196 -0.192246,0.24756 -0.330442,0.329267 -0.139371,0.0817066 -0.294379,0.12256 -0.467463,0.12491 -0.12735,-0.00117498 -0.246295,-0.025217 -0.356834,-0.0720356 -0.111804,-0.046909 -0.209147,-0.112979 -0.294469,-0.195861 -0.0840566,-0.084147 -0.150127,-0.18149 -0.198211,-0.292029 -0.048084,-0.110539 -0.072126,-0.228308 -0.0733009,-0.355659l0 -3.52559c-0.00244035,-0.0744759 -0.0264823,-0.135756 -0.0744759,-0.18384 -0.048084,-0.049259 -0.107014,-0.0744759 -0.177875,-0.0756509 -0.0733009,0.00117498 -0.134581,0.026392 -0.18384,0.0756509 -0.048084,0.048084 -0.0733009,0.109364 -0.0757413,0.18384l0 3.52559c0.00126537,0.198211 0.0385033,0.383316 0.112979,0.555135 0.0733009,0.172994 0.175434,0.325651 0.307575,0.456617 0.131056,0.132141 0.282448,0.234274 0.455442,0.30884 0.173084,0.0744759 0.359274,0.112889 0.55875,0.114154z"/>
  <path id="12" class="fil16" d="M58.14 56.9966l-0.749821 -2.29276c0.150217,-0.0733009 0.282358,-0.170644 0.395337,-0.291938 0.112889,-0.12021 0.200651,-0.258406 0.264281,-0.414589 0.0637203,-0.155008 0.096168,-0.320861 0.0973429,-0.49747 -0.00117498,-0.187455 -0.036063,-0.361714 -0.104483,-0.522687 -0.0696856,-0.162238 -0.164679,-0.30405 -0.287238,-0.42661 -0.12256,-0.12256 -0.264371,-0.217462 -0.426519,-0.287148 -0.161063,-0.0685106 -0.335322,-0.103399 -0.522778,-0.104574l-1.23283 0c-0.0708606,0.00244035 -0.129791,0.0264823 -0.177784,0.0744759 -0.048084,0.048084 -0.072126,0.107014 -0.0745663,0.177875l0 4.67192c0.00244035,0.0708606 0.0264823,0.129791 0.0745663,0.177784 0.0479936,0.048084 0.106924,0.072126 0.177784,0.0745663 0.0744759,-0.00244035 0.134581,-0.0264823 0.18384,-0.0745663 0.048084,-0.0479936 0.0733009,-0.106924 0.0757413,-0.177784l0 -2.24946c0.199476,0 0.364064,0 0.49503,0 0.130966,0 0.234364,0 0.31128,0 0.0756509,0 0.132141,0 0.169379,0 0.036063,0 0.060105,0 0.0696856,0 0.010846,0 0.0156363,0 0.0144613,0l0.756961 2.32873c0.022867,0.0540493 0.0576646,0.0973429 0.104574,0.12735 0.0468186,0.0300977 0.096168,0.045734 0.147777,0.045734 0.060105,-0.00126537 0.110539,-0.0192517 0.150217,-0.0541397 0.0396783,-0.0347976 0.0660703,-0.0780913 0.0817066,-0.1297 0.0156363,-0.0516993 0.0180767,-0.103399 0.00605569,-0.155008zm-2.30713 -2.67481l0 -1.65103 0.973249 0c0.155008,0.00117498 0.295644,0.038413 0.420644,0.111714 0.123735,0.0733009 0.223428,0.173084 0.296729,0.296819 0.0733009,0.125 0.110629,0.264371 0.111804,0.420554 -0.00117498,0.152567 -0.0385033,0.290763 -0.111804,0.414589 -0.0733009,0.123735 -0.172994,0.222253 -0.296729,0.295554 -0.125,0.072126 -0.265637,0.110539 -0.420644,0.111804l-0.973249 0z"/>
  <path id="123" class="fil16" d="M64.1434 54.5164c0.104483,-0.0804412 0.194595,-0.174169 0.270337,-0.282358 0.0769163,-0.108099 0.135756,-0.227134 0.177784,-0.355659 0.0421187,-0.129791 0.0637203,-0.265546 0.0637203,-0.407358 -0.00117498,-0.185015 -0.037238,-0.356924 -0.109364,-0.515457 -0.0708606,-0.158623 -0.167029,-0.296819 -0.290763,-0.417029 -0.12256,-0.118945 -0.263196,-0.211497 -0.420554,-0.278742 -0.158623,-0.0660703 -0.324476,-0.0997833 -0.498645,-0.100958l-1.13919 0c-0.0708606,0.00244035 -0.129791,0.0264823 -0.177784,0.0744759 -0.048084,0.048084 -0.072126,0.107014 -0.0745663,0.177875l0 4.62139c0.00244035,0.0733009 0.0264823,0.134581 0.0745663,0.18384 0.0479936,0.048084 0.106924,0.0733009 0.177784,0.0757413l1.13919 0c0.209057,-0.00117498 0.403743,-0.0408533 0.585142,-0.118945 0.18149,-0.0780913 0.341288,-0.18628 0.479484,-0.323211 0.138106,-0.138196 0.24512,-0.298084 0.323211,-0.479484 0.0780913,-0.18149 0.11777,-0.376085 0.118945,-0.585233 -0.00117498,-0.178959 -0.0300073,-0.347253 -0.0889373,-0.505876 -0.0576646,-0.157358 -0.138196,-0.301609 -0.242679,-0.43131 -0.104574,-0.128616 -0.227134,-0.239155 -0.36768,-0.331707zm-0.807485 -1.84563c0.150127,0.00117498 0.287148,0.038413 0.408533,0.110539 0.121295,0.0733009 0.217462,0.169379 0.289588,0.289588 0.0708606,0.12012 0.108099,0.253525 0.109364,0.400127 -0.00126537,0.150217 -0.0385033,0.287148 -0.109364,0.409708 -0.072126,0.12256 -0.168294,0.219903 -0.289588,0.293204 -0.121385,0.072126 -0.258406,0.110539 -0.408533,0.111804l-0.879611 0 0 -1.61497 0.879611 0zm0 4.10232l-0.879611 0 0 -1.97551 0.879611 0c0.138106,0.00126537 0.266721,0.0264823 0.385666,0.0769163 0.118945,0.0505243 0.223518,0.121385 0.31363,0.211497 0.0901123,0.0901123 0.160973,0.194686 0.211497,0.31363 0.0504339,0.118945 0.0756509,0.24756 0.0769163,0.385666 -0.00126537,0.138196 -0.0264823,0.266812 -0.0769163,0.385756 -0.0505243,0.118945 -0.121385,0.223518 -0.211497,0.31363 -0.0901123,0.0901123 -0.194686,0.160973 -0.31363,0.211497 -0.118945,0.0504339 -0.24756,0.0756509 -0.385666,0.0769163l0 0z"/>
  <path id="1234" class="fil16" d="M68.2001 57.3354c0.199476,-0.00126537 0.385756,-0.0396783 0.55875,-0.114154 0.173084,-0.0745663 0.325651,-0.1767 0.456617,-0.30884 0.130966,-0.130966 0.233099,-0.283623 0.3064,-0.456617 0.0745663,-0.171819 0.111804,-0.356924 0.112979,-0.555135l0 -3.52559c-0.00244035,-0.0744759 -0.0264823,-0.135756 -0.0744759,-0.18384 -0.048084,-0.049259 -0.107014,-0.0744759 -0.177875,-0.0756509 -0.0733009,0.00117498 -0.134581,0.026392 -0.18384,0.0756509 -0.048084,0.048084 -0.0733009,0.109364 -0.0757413,0.18384l0 3.52559c-0.00117498,0.170644 -0.0432033,0.324386 -0.12491,0.461407 -0.0817066,0.138196 -0.192246,0.24756 -0.330442,0.329267 -0.139371,0.0817066 -0.294379,0.12256 -0.467463,0.12491 -0.12735,-0.00117498 -0.246295,-0.025217 -0.356834,-0.0720356 -0.111804,-0.046909 -0.209147,-0.112979 -0.294469,-0.195861 -0.0840566,-0.084147 -0.150127,-0.18149 -0.198211,-0.292029 -0.048084,-0.110539 -0.072126,-0.228308 -0.0733009,-0.355659l0 -3.52559c-0.00244035,-0.0744759 -0.0264823,-0.135756 -0.0744759,-0.18384 -0.048084,-0.049259 -0.107014,-0.0744759 -0.177875,-0.0756509 -0.0733009,0.00117498 -0.134581,0.026392 -0.18384,0.0756509 -0.048084,0.048084 -0.0733009,0.109364 -0.0757413,0.18384l0 3.52559c0.00126537,0.198211 0.0385033,0.383316 0.112979,0.555135 0.0733009,0.172994 0.175434,0.325651 0.307575,0.456617 0.131056,0.132141 0.282448,0.234274 0.455442,0.30884 0.173084,0.0744759 0.359274,0.112889 0.55875,0.114154z"/>
  <path id="12345" class="fil16" d="M72.8912 57.3354c0.18384,0 0.360539,-0.0288323 0.529918,-0.0853219 0.170644,-0.0553146 0.322036,-0.138196 0.456617,-0.246385 0.134581,-0.108099 0.241504,-0.241504 0.320861,-0.397687 0.0780913,-0.157448 0.118945,-0.337672 0.12012,-0.539589 -0.00117498,-0.310015 -0.0744759,-0.582702 -0.221078,-0.817066 -0.145337,-0.234274 -0.358099,-0.430135 -0.636842,-0.588758 -0.278742,-0.161063 -0.496295,-0.288413 -0.650038,-0.380966 -0.153833,-0.0924622 -0.257141,-0.157358 -0.30884,-0.195861 -0.112979,-0.0817066 -0.199476,-0.157358 -0.263196,-0.227043 -0.0624549,-0.070951 -0.106924,-0.137021 -0.134581,-0.198301 -0.026392,-0.06128 -0.0432033,-0.11777 -0.049259,-0.170644 -0.00596531,-0.0528743 -0.00840566,-0.102133 -0.00723067,-0.146602 0,-0.0889373 0.0156363,-0.176609 0.048084,-0.260756 0.0324476,-0.0840566 0.082972,-0.160973 0.150217,-0.228308 0.0673356,-0.0685106 0.153833,-0.12256 0.258316,-0.163413 0.104574,-0.0396783 0.228308,-0.060105 0.37256,-0.06128 0.140546,0.00117498 0.264371,0.022867 0.37012,0.0660703 0.106924,0.0444686 0.194595,0.102133 0.266721,0.1767 0.0708606,0.0733009 0.123735,0.155008 0.159798,0.246295 0.036063,0.0912872 0.0540493,0.18628 0.0540493,0.282358 0.00244035,0.0733009 0.0276573,0.134581 0.0757413,0.18384 0.049259,0.048084 0.110539,0.0733009 0.18384,0.0757413 0.0744759,-0.00244035 0.135756,-0.0276573 0.18384,-0.0757413 0.049259,-0.049259 0.0744759,-0.110539 0.0757413,-0.18384 -0.00126537,-0.185015 -0.037238,-0.355659 -0.107014,-0.510666 -0.0708606,-0.156183 -0.169379,-0.292029 -0.294379,-0.407358 -0.12491,-0.115329 -0.270337,-0.204267 -0.434925,-0.267987 -0.164679,-0.0636299 -0.342463,-0.0960776 -0.533533,-0.0972526 -0.18149,0 -0.353309,0.0288323 -0.514282,0.0840566 -0.162238,0.0553146 -0.305225,0.137021 -0.430225,0.24277 -0.12491,0.106924 -0.223518,0.235449 -0.294379,0.388106 -0.0708606,0.151392 -0.108189,0.324386 -0.109364,0.517897 0.00117498,0.174259 0.0300977,0.331617 0.0889373,0.473428 0.0588396,0.140546 0.141812,0.269162 0.24991,0.384491 0.106924,0.116595 0.234364,0.224693 0.382141,0.324476 0.036063,0.024042 0.0769163,0.0504339 0.121385,0.0780913 0.0444686,0.0276573 0.100868,0.06128 0.169379,0.100958 0.0673356,0.0408533 0.155008,0.0912872 0.263196,0.155008 0.106924,0.0624549 0.242679,0.140546 0.404918,0.235539 0.135756,0.0840566 0.243945,0.166938 0.323211,0.246295 0.0805316,0.0792663 0.139462,0.158623 0.177875,0.236714 0.038413,0.0780913 0.0637203,0.157448 0.0744759,0.236714 0.012021,0.0792663 0.0168113,0.162238 0.0156363,0.246295 -0.00117498,0.152658 -0.038413,0.284798 -0.111714,0.397777 -0.0745663,0.112979 -0.17905,0.201826 -0.314896,0.264371 -0.134581,0.0624549 -0.295554,0.0937276 -0.481834,0.0949026 -0.146602,-0.00117498 -0.275127,-0.024042 -0.385666,-0.0672453 -0.111804,-0.0444686 -0.205532,-0.103399 -0.280008,-0.177875 -0.0756509,-0.0744759 -0.132141,-0.156183 -0.170644,-0.24756 -0.038413,-0.0912872 -0.0576646,-0.18384 -0.0576646,-0.278742 -0.00244035,-0.0744759 -0.0276573,-0.135756 -0.0756509,-0.18384 -0.0493493,-0.049259 -0.109364,-0.0744759 -0.18393,-0.0757413 -0.0708606,0.00126537 -0.1297,0.0264823 -0.177784,0.0757413 -0.048084,0.048084 -0.072126,0.109364 -0.0744759,0.18384 0,0.159798 0.0324476,0.31598 0.0960776,0.468638 0.0637203,0.151392 0.156183,0.288413 0.277567,0.410973 0.12021,0.12256 0.267987,0.219903 0.440981,0.291938 0.174259,0.0733009 0.371295,0.110539 0.591198,0.111804z"/>
  <path id="123456" class="fil16" d="M78.0294 56.7731l-0.641632 0 0 -4.09518 0.641632 0c0.0733009,-0.00234997 0.135846,-0.0275669 0.18393,-0.0756509 0.049259,-0.049259 0.0744759,-0.110539 0.0756509,-0.18384 -0.00117498,-0.0744759 -0.026392,-0.135756 -0.0756509,-0.18384 -0.048084,-0.049259 -0.109364,-0.0745663 -0.18393,-0.0757413l-1.80243 0c-0.0733009,0.00117498 -0.134581,0.0264823 -0.18384,0.0757413 -0.0479936,0.048084 -0.0733009,0.109364 -0.0756509,0.18384 0.00234997,0.0733009 0.0276573,0.134581 0.0756509,0.18384 0.049259,0.048084 0.110539,0.0733009 0.18384,0.0756509l0.648953 0 0 4.09518 -0.648953 0c-0.0733009,0.00234997 -0.134581,0.0275669 -0.18384,0.0756509 -0.0479936,0.049259 -0.0733009,0.110539 -0.0756509,0.18384 0.00234997,0.0733009 0.0276573,0.134581 0.0756509,0.18384 0.049259,0.048084 0.110539,0.0733009 0.18384,0.0757413l1.80243 0c0.0733009,-0.00244035 0.135846,-0.0276573 0.18393,-0.0757413 0.049259,-0.049259 0.0744759,-0.110539 0.0756509,-0.18384 -0.00117498,-0.0733009 -0.026392,-0.134581 -0.0756509,-0.18384 -0.048084,-0.048084 -0.109364,-0.0733009 -0.18393,-0.0756509l0 0z"/>
  <path id="1234567" class="fil16" d="M82.8577 57.3354c0.0107556,0 0.0204267,0 0.0288323,-0.00126537 0.00840566,0 0.0179863,-0.00234997 0.0288323,-0.00596531 0.0588396,-0.0156363 0.106924,-0.0456436 0.144162,-0.0913776 0.037238,-0.0443783 0.0564896,-0.0985179 0.0576646,-0.160973l0 -4.70075c-0.00117498,-0.0744759 -0.026392,-0.135756 -0.0756509,-0.18384 -0.048084,-0.049259 -0.109364,-0.0744759 -0.18384,-0.0756509 -0.0733009,0.00117498 -0.134581,0.026392 -0.18384,0.0756509 -0.048084,0.048084 -0.0733009,0.109364 -0.0757413,0.18384l0 3.62654 -1.88892 -3.74187c-0.022867,-0.0444686 -0.0553146,-0.0793566 -0.096168,-0.104574 -0.0420283,-0.026392 -0.0864969,-0.0395879 -0.134581,-0.0395879 -0.0444686,0 -0.0853219,0.012021 -0.12256,0.0347976 -0.038413,0.022867 -0.0696856,0.0540493 -0.0925526,0.0937276 -0.0239516,0.0385033 -0.0359726,0.0817066 -0.037238,0.130966l0 4.70075c0.00244035,0.0733009 0.0264823,0.134581 0.0745663,0.18384 0.0479936,0.048084 0.106924,0.0733009 0.177784,0.0757413 0.0744759,-0.00244035 0.134581,-0.0276573 0.18384,-0.0757413 0.048084,-0.049259 0.0733009,-0.110539 0.0757413,-0.18384l0 -3.62645 1.88892 3.74178c0.022867,0.046909 0.0553146,0.082972 0.096168,0.106924 0.0420283,0.0253074 0.0864969,0.0373283 0.134581,0.0373283z"/>
  <path id="12345678" class="fil16" d="M87.585 56.7731l-1.8168 0 0 -1.98988 1.58614 0c0.0733009,-0.00244035 0.134581,-0.0264823 0.18384,-0.0745663 0.048084,-0.0479936 0.0733009,-0.106924 0.0756509,-0.177784 -0.00234997,-0.0744759 -0.0275669,-0.135756 -0.0756509,-0.18384 -0.049259,-0.049259 -0.110539,-0.0744759 -0.18384,-0.0757413l-1.58614 0 0 -1.60051 1.7952 0c0.0733009,-0.00244035 0.134581,-0.0276573 0.18384,-0.0757413 0.048084,-0.049259 0.0733009,-0.110539 0.0757413,-0.18384 -0.00244035,-0.0708606 -0.0276573,-0.129791 -0.0757413,-0.177875 -0.049259,-0.0479936 -0.110539,-0.0720356 -0.18384,-0.0744759l-2.05478 0c-0.0708606,0.00244035 -0.129791,0.0264823 -0.177784,0.0744759 -0.048084,0.048084 -0.072126,0.107014 -0.0745663,0.177875l0 4.62139c0.00244035,0.0733009 0.0264823,0.134581 0.0745663,0.18384 0.0479936,0.048084 0.106924,0.0733009 0.177784,0.0757413l2.07638 0c0.0733009,-0.00244035 0.134581,-0.0276573 0.18384,-0.0757413 0.048084,-0.049259 0.0733009,-0.110539 0.0757413,-0.18384 -0.00244035,-0.0733009 -0.0276573,-0.134581 -0.0757413,-0.18384 -0.049259,-0.048084 -0.110539,-0.0733009 -0.18384,-0.0756509z"/>
  <path id="123456789" class="fil16" d="M90.7045 57.3354c0.18384,0 0.360539,-0.0288323 0.529918,-0.0853219 0.170644,-0.0553146 0.322036,-0.138196 0.456617,-0.246385 0.134581,-0.108099 0.241504,-0.241504 0.320861,-0.397687 0.0780913,-0.157448 0.118945,-0.337672 0.12012,-0.539589 -0.00117498,-0.310015 -0.0744759,-0.582702 -0.221078,-0.817066 -0.145337,-0.234274 -0.358099,-0.430135 -0.636842,-0.588758 -0.278742,-0.161063 -0.496295,-0.288413 -0.650038,-0.380966 -0.153833,-0.0924622 -0.257141,-0.157358 -0.30884,-0.195861 -0.112979,-0.0817066 -0.199476,-0.157358 -0.263196,-0.227043 -0.0624549,-0.070951 -0.106924,-0.137021 -0.134581,-0.198301 -0.026392,-0.06128 -0.0432033,-0.11777 -0.049259,-0.170644 -0.00596531,-0.0528743 -0.00840566,-0.102133 -0.00723067,-0.146602 0,-0.0889373 0.0156363,-0.176609 0.048084,-0.260756 0.0324476,-0.0840566 0.082972,-0.160973 0.150217,-0.228308 0.0673356,-0.0685106 0.153833,-0.12256 0.258316,-0.163413 0.104574,-0.0396783 0.228308,-0.060105 0.37256,-0.06128 0.140546,0.00117498 0.264371,0.022867 0.37012,0.0660703 0.106924,0.0444686 0.194595,0.102133 0.266721,0.1767 0.0708606,0.0733009 0.123735,0.155008 0.159798,0.246295 0.036063,0.0912872 0.0540493,0.18628 0.0540493,0.282358 0.00244035,0.0733009 0.0276573,0.134581 0.0757413,0.18384 0.049259,0.048084 0.110539,0.0733009 0.18384,0.0757413 0.0744759,-0.00244035 0.135756,-0.0276573 0.18384,-0.0757413 0.049259,-0.049259 0.0744759,-0.110539 0.0757413,-0.18384 -0.00126537,-0.185015 -0.037238,-0.355659 -0.107014,-0.510666 -0.0708606,-0.156183 -0.169379,-0.292029 -0.294379,-0.407358 -0.12491,-0.115329 -0.270337,-0.204267 -0.434925,-0.267987 -0.164679,-0.0636299 -0.342463,-0.0960776 -0.533533,-0.0972526 -0.18149,0 -0.353309,0.0288323 -0.514282,0.0840566 -0.162238,0.0553146 -0.305225,0.137021 -0.430225,0.24277 -0.12491,0.106924 -0.223518,0.235449 -0.294379,0.388106 -0.0708606,0.151392 -0.108189,0.324386 -0.109364,0.517897 0.00117498,0.174259 0.0300977,0.331617 0.0889373,0.473428 0.0588396,0.140546 0.141812,0.269162 0.24991,0.384491 0.106924,0.116595 0.234364,0.224693 0.382141,0.324476 0.036063,0.024042 0.0769163,0.0504339 0.121385,0.0780913 0.0444686,0.0276573 0.100868,0.06128 0.169379,0.100958 0.0673356,0.0408533 0.155008,0.0912872 0.263196,0.155008 0.106924,0.0624549 0.242679,0.140546 0.404918,0.235539 0.135756,0.0840566 0.243945,0.166938 0.323211,0.246295 0.0805316,0.0792663 0.139462,0.158623 0.177875,0.236714 0.038413,0.0780913 0.0637203,0.157448 0.0744759,0.236714 0.012021,0.0792663 0.0168113,0.162238 0.0156363,0.246295 -0.00117498,0.152658 -0.038413,0.284798 -0.111714,0.397777 -0.0745663,0.112979 -0.17905,0.201826 -0.314896,0.264371 -0.134581,0.0624549 -0.295554,0.0937276 -0.481834,0.0949026 -0.146602,-0.00117498 -0.275127,-0.024042 -0.385666,-0.0672453 -0.111804,-0.0444686 -0.205532,-0.103399 -0.280008,-0.177875 -0.0756509,-0.0744759 -0.132141,-0.156183 -0.170644,-0.24756 -0.038413,-0.0912872 -0.0576646,-0.18384 -0.0576646,-0.278742 -0.00244035,-0.0744759 -0.0276573,-0.135756 -0.0756509,-0.18384 -0.0493493,-0.049259 -0.109364,-0.0744759 -0.18393,-0.0757413 -0.0708606,0.00126537 -0.1297,0.0264823 -0.177784,0.0757413 -0.048084,0.048084 -0.072126,0.109364 -0.0744759,0.18384 0,0.159798 0.0324476,0.31598 0.0960776,0.468638 0.0637203,0.151392 0.156183,0.288413 0.277567,0.410973 0.12021,0.12256 0.267987,0.219903 0.440981,0.291938 0.174259,0.0733009 0.371295,0.110539 0.591198,0.111804z"/>
  <path id="12345678910" class="fil16" d="M95.1001 57.3354c0.18384,0 0.360539,-0.0288323 0.529918,-0.0853219 0.170644,-0.0553146 0.322036,-0.138196 0.456617,-0.246385 0.134581,-0.108099 0.241504,-0.241504 0.320861,-0.397687 0.0780913,-0.157448 0.118945,-0.337672 0.12012,-0.539589 -0.00117498,-0.310015 -0.0744759,-0.582702 -0.221078,-0.817066 -0.145337,-0.234274 -0.358099,-0.430135 -0.636842,-0.588758 -0.278742,-0.161063 -0.496295,-0.288413 -0.650038,-0.380966 -0.153833,-0.0924622 -0.257141,-0.157358 -0.30884,-0.195861 -0.112979,-0.0817066 -0.199476,-0.157358 -0.263196,-0.227043 -0.0624549,-0.070951 -0.106924,-0.137021 -0.134581,-0.198301 -0.026392,-0.06128 -0.0432033,-0.11777 -0.049259,-0.170644 -0.00596531,-0.0528743 -0.00840566,-0.102133 -0.00723067,-0.146602 0,-0.0889373 0.0156363,-0.176609 0.048084,-0.260756 0.0324476,-0.0840566 0.082972,-0.160973 0.150217,-0.228308 0.0673356,-0.0685106 0.153833,-0.12256 0.258316,-0.163413 0.104574,-0.0396783 0.228308,-0.060105 0.37256,-0.06128 0.140546,0.00117498 0.264371,0.022867 0.37012,0.0660703 0.106924,0.0444686 0.194595,0.102133 0.266721,0.1767 0.0708606,0.0733009 0.123735,0.155008 0.159798,0.246295 0.036063,0.0912872 0.0540493,0.18628 0.0540493,0.282358 0.00244035,0.0733009 0.0276573,0.134581 0.0757413,0.18384 0.049259,0.048084 0.110539,0.0733009 0.18384,0.0757413 0.0744759,-0.00244035 0.135756,-0.0276573 0.18384,-0.0757413 0.049259,-0.049259 0.0744759,-0.110539 0.0757413,-0.18384 -0.00126537,-0.185015 -0.037238,-0.355659 -0.107014,-0.510666 -0.0708606,-0.156183 -0.169379,-0.292029 -0.294379,-0.407358 -0.12491,-0.115329 -0.270337,-0.204267 -0.434925,-0.267987 -0.164679,-0.0636299 -0.342463,-0.0960776 -0.533533,-0.0972526 -0.18149,0 -0.353309,0.0288323 -0.514282,0.0840566 -0.162238,0.0553146 -0.305225,0.137021 -0.430225,0.24277 -0.12491,0.106924 -0.223518,0.235449 -0.294379,0.388106 -0.0708606,0.151392 -0.108189,0.324386 -0.109364,0.517897 0.00117498,0.174259 0.0300977,0.331617 0.0889373,0.473428 0.0588396,0.140546 0.141812,0.269162 0.24991,0.384491 0.106924,0.116595 0.234364,0.224693 0.382141,0.324476 0.036063,0.024042 0.0769163,0.0504339 0.121385,0.0780913 0.0444686,0.0276573 0.100868,0.06128 0.169379,0.100958 0.0673356,0.0408533 0.155008,0.0912872 0.263196,0.155008 0.106924,0.0624549 0.242679,0.140546 0.404918,0.235539 0.135756,0.0840566 0.243945,0.166938 0.323211,0.246295 0.0805316,0.0792663 0.139462,0.158623 0.177875,0.236714 0.038413,0.0780913 0.0637203,0.157448 0.0744759,0.236714 0.012021,0.0792663 0.0168113,0.162238 0.0156363,0.246295 -0.00117498,0.152658 -0.038413,0.284798 -0.111714,0.397777 -0.0745663,0.112979 -0.17905,0.201826 -0.314896,0.264371 -0.134581,0.0624549 -0.295554,0.0937276 -0.481834,0.0949026 -0.146602,-0.00117498 -0.275127,-0.024042 -0.385666,-0.0672453 -0.111804,-0.0444686 -0.205532,-0.103399 -0.280008,-0.177875 -0.0756509,-0.0744759 -0.132141,-0.156183 -0.170644,-0.24756 -0.038413,-0.0912872 -0.0576646,-0.18384 -0.0576646,-0.278742 -0.00244035,-0.0744759 -0.0276573,-0.135756 -0.0756509,-0.18384 -0.0493493,-0.049259 -0.109364,-0.0744759 -0.18393,-0.0757413 -0.0708606,0.00126537 -0.1297,0.0264823 -0.177784,0.0757413 -0.048084,0.048084 -0.072126,0.109364 -0.0744759,0.18384 0,0.159798 0.0324476,0.31598 0.0960776,0.468638 0.0637203,0.151392 0.156183,0.288413 0.277567,0.410973 0.12021,0.12256 0.267987,0.219903 0.440981,0.291938 0.174259,0.0733009 0.371295,0.110539 0.591198,0.111804z"/>
  <path id="1234567891011" class="fil16" d="M98.4864 56.528c-0.0733009,0.00117498 -0.139371,0.0204267 -0.199476,0.0563992 -0.05893,0.0373283 -0.106924,0.0865873 -0.141812,0.149042 -0.036063,0.06128 -0.0540493,0.129791 -0.0552243,0.205441 0.00117498,0.0733009 0.0191613,0.139462 0.0552243,0.199476 0.034888,0.05893 0.0828816,0.107014 0.141812,0.141812 0.060105,0.036063 0.126175,0.0540493 0.199476,0.0553146 0.0756509,-0.00126537 0.144162,-0.0192517 0.205441,-0.0553146 0.0625453,-0.0347976 0.111804,-0.0828816 0.149042,-0.141812 0.036063,-0.0600146 0.0552243,-0.126175 0.0564896,-0.199476 -0.00126537,-0.0756509 -0.0204267,-0.144162 -0.0564896,-0.205441 -0.037238,-0.0624549 -0.0864969,-0.111714 -0.149042,-0.149042 -0.06128,-0.0359726 -0.129791,-0.0552243 -0.205441,-0.0563992z"/>
  <path id="123456789101112" class="fil16" d="M105.016 52.1156c-0.0516993,0 -0.0973429,0.014371 -0.136931,0.0408533 -0.0408533,0.026392 -0.072126,0.0636299 -0.0937276,0.110539l-1.00217 2.22777 -1.00217 -2.22777c-0.022867,-0.046909 -0.0553146,-0.084147 -0.0973429,-0.110539 -0.0420283,-0.0264823 -0.0889373,-0.0408533 -0.140546,-0.0408533 -0.0648953,0.00117498 -0.118945,0.0204267 -0.162238,0.0576646 -0.0432937,0.037238 -0.0708606,0.0840566 -0.084147,0.138196 -0.013196,0.0552243 -0.00714029,0.110539 0.0156363,0.164588l1.21123 2.69641 0 1.90338c0.00244035,0.0733009 0.0276573,0.134581 0.0757413,0.18384 0.049259,0.048084 0.110539,0.0733009 0.18384,0.0757413 0.0733009,-0.00244035 0.133316,-0.0276573 0.180225,-0.0757413 0.0468186,-0.049259 0.0708606,-0.110539 0.072126,-0.18384l0 -1.90338 1.21837 -2.69641c0.0253074,-0.06128 0.0289227,-0.118945 0.012021,-0.174259 -0.0168113,-0.0540493 -0.0479936,-0.0985179 -0.0937276,-0.133316 -0.0456436,-0.033713 -0.0972526,-0.0516993 -0.156183,-0.0528743z"/>
  <path id="12345678910111213" class="fil16" d="M108.352 57.3354c0.199476,-0.00126537 0.385666,-0.0385033 0.55875,-0.112979 0.172994,-0.0733009 0.325561,-0.175434 0.456617,-0.307665 0.130966,-0.130966 0.233099,-0.282358 0.3064,-0.455352 0.0744759,-0.173084 0.111714,-0.359274 0.112889,-0.55875l0 -2.35042c-0.00117498,-0.198211 -0.038413,-0.383316 -0.112889,-0.55631 -0.0733009,-0.171819 -0.175434,-0.324476 -0.3064,-0.455442 -0.131056,-0.132141 -0.283623,-0.235449 -0.456617,-0.30875 -0.173084,-0.0745663 -0.359274,-0.112979 -0.55875,-0.114154 -0.199476,0.00117498 -0.385756,0.0395879 -0.55875,0.114154 -0.173084,0.0733009 -0.324476,0.176609 -0.455442,0.30875 -0.132231,0.130966 -0.234364,0.283623 -0.307665,0.455442 -0.0744759,0.172994 -0.111714,0.358099 -0.112889,0.55631l0 2.35042c0.00117498,0.199476 0.038413,0.385666 0.112889,0.55875 0.0733009,0.172994 0.175434,0.324386 0.307665,0.455352 0.130966,0.132231 0.282358,0.234364 0.455442,0.307665 0.172994,0.0744759 0.359274,0.111714 0.55875,0.112979zm0 -4.70798c0.12735,0.00117498 0.246295,0.025217 0.356834,0.0733009 0.111804,0.048084 0.209057,0.114154 0.294379,0.198301 0.084147,0.0853219 0.150217,0.182574 0.198301,0.294379 0.048084,0.110539 0.072126,0.229483 0.0733009,0.356834l0 2.35042c-0.00117498,0.12735 -0.025217,0.246295 -0.0733009,0.356834 -0.048084,0.111804 -0.114154,0.209147 -0.198301,0.294379 -0.0853219,0.084147 -0.182574,0.150217 -0.294379,0.198301 -0.110539,0.048084 -0.229483,0.072126 -0.356834,0.0733009 -0.128616,-0.00117498 -0.248735,-0.025217 -0.360539,-0.0733009 -0.110539,-0.048084 -0.209057,-0.114154 -0.293204,-0.198301 -0.0840566,-0.0852316 -0.150217,-0.182574 -0.197036,-0.294379 -0.046909,-0.110539 -0.0708606,-0.229483 -0.072126,-0.356834l0 -2.35042c0.00126537,-0.12735 0.025217,-0.246295 0.072126,-0.356834 0.0468186,-0.111804 0.112979,-0.209057 0.197036,-0.294379 0.084147,-0.084147 0.182665,-0.150217 0.293204,-0.198301 0.111804,-0.048084 0.231924,-0.072126 0.360539,-0.0733009z"/>
  <path id="1234567891011121314" class="fil16" d="M113.252 57.3354c0.199476,-0.00126537 0.385756,-0.0396783 0.55875,-0.114154 0.173084,-0.0745663 0.325651,-0.1767 0.456617,-0.30884 0.130966,-0.130966 0.233099,-0.283623 0.3064,-0.456617 0.0745663,-0.171819 0.111804,-0.356924 0.112979,-0.555135l0 -3.52559c-0.00244035,-0.0744759 -0.0264823,-0.135756 -0.0744759,-0.18384 -0.048084,-0.049259 -0.107014,-0.0744759 -0.177875,-0.0756509 -0.0733009,0.00117498 -0.134581,0.026392 -0.18384,0.0756509 -0.048084,0.048084 -0.0733009,0.109364 -0.0757413,0.18384l0 3.52559c-0.00117498,0.170644 -0.0432033,0.324386 -0.12491,0.461407 -0.0817066,0.138196 -0.192246,0.24756 -0.330442,0.329267 -0.139371,0.0817066 -0.294379,0.12256 -0.467463,0.12491 -0.12735,-0.00117498 -0.246295,-0.025217 -0.356834,-0.0720356 -0.111804,-0.046909 -0.209147,-0.112979 -0.294469,-0.195861 -0.0840566,-0.084147 -0.150127,-0.18149 -0.198211,-0.292029 -0.048084,-0.110539 -0.072126,-0.228308 -0.0733009,-0.355659l0 -3.52559c-0.00244035,-0.0744759 -0.0264823,-0.135756 -0.0744759,-0.18384 -0.048084,-0.049259 -0.107014,-0.0744759 -0.177875,-0.0756509 -0.0733009,0.00117498 -0.134581,0.026392 -0.18384,0.0756509 -0.048084,0.048084 -0.0733009,0.109364 -0.0757413,0.18384l0 3.52559c0.00126537,0.198211 0.0385033,0.383316 0.112979,0.555135 0.0733009,0.172994 0.175434,0.325651 0.307575,0.456617 0.131056,0.132141 0.282448,0.234274 0.455442,0.30884 0.173084,0.0744759 0.359274,0.112889 0.55875,0.114154z"/>
  <path id="123456789101112131415" class="fil16" d="M119.645 56.9966l-0.749821 -2.29276c0.150217,-0.0733009 0.282358,-0.170644 0.395337,-0.291938 0.112889,-0.12021 0.200651,-0.258406 0.264281,-0.414589 0.0637203,-0.155008 0.096168,-0.320861 0.0973429,-0.49747 -0.00117498,-0.187455 -0.036063,-0.361714 -0.104483,-0.522687 -0.0696856,-0.162238 -0.164679,-0.30405 -0.287238,-0.42661 -0.12256,-0.12256 -0.264371,-0.217462 -0.426519,-0.287148 -0.161063,-0.0685106 -0.335322,-0.103399 -0.522778,-0.104574l-1.23283 0c-0.0708606,0.00244035 -0.129791,0.0264823 -0.177784,0.0744759 -0.048084,0.048084 -0.072126,0.107014 -0.0745663,0.177875l0 4.67192c0.00244035,0.0708606 0.0264823,0.129791 0.0745663,0.177784 0.0479936,0.048084 0.106924,0.072126 0.177784,0.0745663 0.0744759,-0.00244035 0.134581,-0.0264823 0.18384,-0.0745663 0.048084,-0.0479936 0.0733009,-0.106924 0.0757413,-0.177784l0 -2.24946c0.199476,0 0.364064,0 0.49503,0 0.130966,0 0.234364,0 0.31128,0 0.0756509,0 0.132141,0 0.169379,0 0.036063,0 0.060105,0 0.0696856,0 0.010846,0 0.0156363,0 0.0144613,0l0.756961 2.32873c0.022867,0.0540493 0.0576646,0.0973429 0.104574,0.12735 0.0468186,0.0300977 0.096168,0.045734 0.147777,0.045734 0.060105,-0.00126537 0.110539,-0.0192517 0.150217,-0.0541397 0.0396783,-0.0347976 0.0660703,-0.0780913 0.0817066,-0.1297 0.0156363,-0.0516993 0.0180767,-0.103399 0.00605569,-0.155008zm-2.30713 -2.67481l0 -1.65103 0.973249 0c0.155008,0.00117498 0.295644,0.038413 0.420644,0.111714 0.123735,0.0733009 0.223428,0.173084 0.296729,0.296819 0.0733009,0.125 0.110629,0.264371 0.111804,0.420554 -0.00117498,0.152567 -0.0385033,0.290763 -0.111804,0.414589 -0.0733009,0.123735 -0.172994,0.222253 -0.296729,0.295554 -0.125,0.072126 -0.265637,0.110539 -0.420644,0.111804l-0.973249 0z"/>
  <path id="12345678910111213141516" class="fil16" d="M124.567 57.3354c0.18384,0 0.360539,-0.0288323 0.529918,-0.0853219 0.170644,-0.0553146 0.322036,-0.138196 0.456617,-0.246385 0.134581,-0.108099 0.241504,-0.241504 0.320861,-0.397687 0.0780913,-0.157448 0.118945,-0.337672 0.12012,-0.539589 -0.00117498,-0.310015 -0.0744759,-0.582702 -0.221078,-0.817066 -0.145337,-0.234274 -0.358099,-0.430135 -0.636842,-0.588758 -0.278742,-0.161063 -0.496295,-0.288413 -0.650038,-0.380966 -0.153833,-0.0924622 -0.257141,-0.157358 -0.30884,-0.195861 -0.112979,-0.0817066 -0.199476,-0.157358 -0.263196,-0.227043 -0.0624549,-0.070951 -0.106924,-0.137021 -0.134581,-0.198301 -0.026392,-0.06128 -0.0432033,-0.11777 -0.049259,-0.170644 -0.00596531,-0.0528743 -0.00840566,-0.102133 -0.00723067,-0.146602 0,-0.0889373 0.0156363,-0.176609 0.048084,-0.260756 0.0324476,-0.0840566 0.082972,-0.160973 0.150217,-0.228308 0.0673356,-0.0685106 0.153833,-0.12256 0.258316,-0.163413 0.104574,-0.0396783 0.228308,-0.060105 0.37256,-0.06128 0.140546,0.00117498 0.264371,0.022867 0.37012,0.0660703 0.106924,0.0444686 0.194595,0.102133 0.266721,0.1767 0.0708606,0.0733009 0.123735,0.155008 0.159798,0.246295 0.036063,0.0912872 0.0540493,0.18628 0.0540493,0.282358 0.00244035,0.0733009 0.0276573,0.134581 0.0757413,0.18384 0.049259,0.048084 0.110539,0.0733009 0.18384,0.0757413 0.0744759,-0.00244035 0.135756,-0.0276573 0.18384,-0.0757413 0.049259,-0.049259 0.0744759,-0.110539 0.0757413,-0.18384 -0.00126537,-0.185015 -0.037238,-0.355659 -0.107014,-0.510666 -0.0708606,-0.156183 -0.169379,-0.292029 -0.294379,-0.407358 -0.12491,-0.115329 -0.270337,-0.204267 -0.434925,-0.267987 -0.164679,-0.0636299 -0.342463,-0.0960776 -0.533533,-0.0972526 -0.18149,0 -0.353309,0.0288323 -0.514282,0.0840566 -0.162238,0.0553146 -0.305225,0.137021 -0.430225,0.24277 -0.12491,0.106924 -0.223518,0.235449 -0.294379,0.388106 -0.0708606,0.151392 -0.108189,0.324386 -0.109364,0.517897 0.00117498,0.174259 0.0300977,0.331617 0.0889373,0.473428 0.0588396,0.140546 0.141812,0.269162 0.24991,0.384491 0.106924,0.116595 0.234364,0.224693 0.382141,0.324476 0.036063,0.024042 0.0769163,0.0504339 0.121385,0.0780913 0.0444686,0.0276573 0.100868,0.06128 0.169379,0.100958 0.0673356,0.0408533 0.155008,0.0912872 0.263196,0.155008 0.106924,0.0624549 0.242679,0.140546 0.404918,0.235539 0.135756,0.0840566 0.243945,0.166938 0.323211,0.246295 0.0805316,0.0792663 0.139462,0.158623 0.177875,0.236714 0.038413,0.0780913 0.0637203,0.157448 0.0744759,0.236714 0.012021,0.0792663 0.0168113,0.162238 0.0156363,0.246295 -0.00117498,0.152658 -0.038413,0.284798 -0.111714,0.397777 -0.0745663,0.112979 -0.17905,0.201826 -0.314896,0.264371 -0.134581,0.0624549 -0.295554,0.0937276 -0.481834,0.0949026 -0.146602,-0.00117498 -0.275127,-0.024042 -0.385666,-0.0672453 -0.111804,-0.0444686 -0.205532,-0.103399 -0.280008,-0.177875 -0.0756509,-0.0744759 -0.132141,-0.156183 -0.170644,-0.24756 -0.038413,-0.0912872 -0.0576646,-0.18384 -0.0576646,-0.278742 -0.00244035,-0.0744759 -0.0276573,-0.135756 -0.0756509,-0.18384 -0.0493493,-0.049259 -0.109364,-0.0744759 -0.18393,-0.0757413 -0.0708606,0.00126537 -0.1297,0.0264823 -0.177784,0.0757413 -0.048084,0.048084 -0.072126,0.109364 -0.0744759,0.18384 0,0.159798 0.0324476,0.31598 0.0960776,0.468638 0.0637203,0.151392 0.156183,0.288413 0.277567,0.410973 0.12021,0.12256 0.267987,0.219903 0.440981,0.291938 0.174259,0.0733009 0.371295,0.110539 0.591198,0.111804z"/>
  <path id="1234567891011121314151617" class="fil16" d="M129.28 57.3354c0.199476,-0.00126537 0.385756,-0.0396783 0.55875,-0.114154 0.173084,-0.0745663 0.325651,-0.1767 0.456617,-0.30884 0.130966,-0.130966 0.233099,-0.283623 0.3064,-0.456617 0.0745663,-0.171819 0.111804,-0.356924 0.112979,-0.555135l0 -3.52559c-0.00244035,-0.0744759 -0.0264823,-0.135756 -0.0744759,-0.18384 -0.048084,-0.049259 -0.107014,-0.0744759 -0.177875,-0.0756509 -0.0733009,0.00117498 -0.134581,0.026392 -0.18384,0.0756509 -0.048084,0.048084 -0.0733009,0.109364 -0.0757413,0.18384l0 3.52559c-0.00117498,0.170644 -0.0432033,0.324386 -0.12491,0.461407 -0.0817066,0.138196 -0.192246,0.24756 -0.330442,0.329267 -0.139371,0.0817066 -0.294379,0.12256 -0.467463,0.12491 -0.12735,-0.00117498 -0.246295,-0.025217 -0.356834,-0.0720356 -0.111804,-0.046909 -0.209147,-0.112979 -0.294469,-0.195861 -0.0840566,-0.084147 -0.150127,-0.18149 -0.198211,-0.292029 -0.048084,-0.110539 -0.072126,-0.228308 -0.0733009,-0.355659l0 -3.52559c-0.00244035,-0.0744759 -0.0264823,-0.135756 -0.0744759,-0.18384 -0.048084,-0.049259 -0.107014,-0.0744759 -0.177875,-0.0756509 -0.0733009,0.00117498 -0.134581,0.026392 -0.18384,0.0756509 -0.048084,0.048084 -0.0733009,0.109364 -0.0757413,0.18384l0 3.52559c0.00126537,0.198211 0.0385033,0.383316 0.112979,0.555135 0.0733009,0.172994 0.175434,0.325651 0.307575,0.456617 0.131056,0.132141 0.282448,0.234274 0.455442,0.30884 0.173084,0.0744759 0.359274,0.112889 0.55875,0.114154z"/>
  <path id="123456789101112131415161718" class="fil16" d="M134.216 57.3354c0.177875,-0.00126537 0.348518,-0.033713 0.510757,-0.0973429 0.163413,-0.0637203 0.310015,-0.153833 0.440981,-0.269162 0.130966,-0.116595 0.237889,-0.25235 0.322036,-0.408533 0.0828816,-0.157448 0.134581,-0.329267 0.153742,-0.515547 0.0048807,-0.0468186 -0.00234997,-0.0901123 -0.0216016,-0.130966 -0.0179863,-0.0408533 -0.0456436,-0.0744759 -0.0817066,-0.100958 -0.036063,-0.0276573 -0.0792663,-0.0432033 -0.12735,-0.049259 -0.046909,-0.00479032 -0.0901123,0.00244035 -0.130966,0.0216016 -0.0408533,0.0180767 -0.0744759,0.045734 -0.100958,0.081797 -0.0276573,0.0359726 -0.0432937,0.0792663 -0.049259,0.12735 -0.0156363,0.157358 -0.0660703,0.299169 -0.151392,0.422904 -0.084147,0.125 -0.192246,0.223518 -0.324476,0.295644 -0.133316,0.072126 -0.279917,0.109364 -0.439806,0.110539 -0.12735,-0.00117498 -0.246295,-0.025217 -0.356834,-0.0733009 -0.111714,-0.048084 -0.209057,-0.114154 -0.294379,-0.198301 -0.084147,-0.0852316 -0.150217,-0.182574 -0.198301,-0.294379 -0.048084,-0.110539 -0.072126,-0.229483 -0.0733009,-0.356834l0 -2.35042c0.00117498,-0.12735 0.025217,-0.246295 0.0733009,-0.356834 0.048084,-0.111804 0.114154,-0.209057 0.198301,-0.294379 0.0853219,-0.084147 0.182665,-0.150217 0.294379,-0.198301 0.110539,-0.048084 0.229483,-0.072126 0.356834,-0.0733009 0.159888,0.00117498 0.30649,0.0385033 0.439806,0.110539 0.132231,0.072126 0.240329,0.170644 0.324476,0.295644 0.0853219,0.123735 0.135756,0.265546 0.151392,0.422904 0.00596531,0.048084 0.0216016,0.0913776 0.049259,0.127441 0.0264823,0.0359726 0.060105,0.0636299 0.100958,0.0817066 0.0408533,0.0191613 0.0840566,0.026392 0.130966,0.0216016 0.048084,-0.00596531 0.0912872,-0.0216016 0.12735,-0.049259 0.036063,-0.0264823 0.0637203,-0.06128 0.0817066,-0.100958 0.0192517,-0.0408533 0.0264823,-0.0853219 0.0216016,-0.130966 -0.0191613,-0.177875 -0.0684202,-0.344903 -0.148952,-0.499911 -0.0805316,-0.155008 -0.185015,-0.291938 -0.31363,-0.410883 -0.128525,-0.11777 -0.275127,-0.210322 -0.438631,-0.277567 -0.164588,-0.0673356 -0.340022,-0.100958 -0.526303,-0.102133 -0.199386,0.00117498 -0.385666,0.0395879 -0.55875,0.114154 -0.172994,0.0733009 -0.324386,0.176609 -0.455352,0.30875 -0.132231,0.130966 -0.234364,0.283623 -0.307665,0.455442 -0.0744759,0.172994 -0.111714,0.358099 -0.112889,0.55631l0 2.35042c0.00117498,0.199476 0.038413,0.385666 0.112889,0.55875 0.0733009,0.172994 0.175434,0.324386 0.307665,0.455352 0.130966,0.132231 0.282358,0.234364 0.455352,0.307665 0.173084,0.0744759 0.359364,0.111714 0.55875,0.112979z"/>
  <path id="12345678910111213141516171819" class="fil16" d="M138.792 57.3354c0.177875,-0.00126537 0.348518,-0.033713 0.510757,-0.0973429 0.163413,-0.0637203 0.310015,-0.153833 0.440981,-0.269162 0.130966,-0.116595 0.237889,-0.25235 0.322036,-0.408533 0.0828816,-0.157448 0.134581,-0.329267 0.153742,-0.515547 0.0048807,-0.0468186 -0.00234997,-0.0901123 -0.0216016,-0.130966 -0.0179863,-0.0408533 -0.0456436,-0.0744759 -0.0817066,-0.100958 -0.036063,-0.0276573 -0.0792663,-0.0432033 -0.12735,-0.049259 -0.046909,-0.00479032 -0.0901123,0.00244035 -0.130966,0.0216016 -0.0408533,0.0180767 -0.0744759,0.045734 -0.100958,0.081797 -0.0276573,0.0359726 -0.0432937,0.0792663 -0.049259,0.12735 -0.0156363,0.157358 -0.0660703,0.299169 -0.151392,0.422904 -0.084147,0.125 -0.192246,0.223518 -0.324476,0.295644 -0.133316,0.072126 -0.279917,0.109364 -0.439806,0.110539 -0.12735,-0.00117498 -0.246295,-0.025217 -0.356834,-0.0733009 -0.111714,-0.048084 -0.209057,-0.114154 -0.294379,-0.198301 -0.084147,-0.0852316 -0.150217,-0.182574 -0.198301,-0.294379 -0.048084,-0.110539 -0.072126,-0.229483 -0.0733009,-0.356834l0 -2.35042c0.00117498,-0.12735 0.025217,-0.246295 0.0733009,-0.356834 0.048084,-0.111804 0.114154,-0.209057 0.198301,-0.294379 0.0853219,-0.084147 0.182665,-0.150217 0.294379,-0.198301 0.110539,-0.048084 0.229483,-0.072126 0.356834,-0.0733009 0.159888,0.00117498 0.30649,0.0385033 0.439806,0.110539 0.132231,0.072126 0.240329,0.170644 0.324476,0.295644 0.0853219,0.123735 0.135756,0.265546 0.151392,0.422904 0.00596531,0.048084 0.0216016,0.0913776 0.049259,0.127441 0.0264823,0.0359726 0.060105,0.0636299 0.100958,0.0817066 0.0408533,0.0191613 0.0840566,0.026392 0.130966,0.0216016 0.048084,-0.00596531 0.0912872,-0.0216016 0.12735,-0.049259 0.036063,-0.0264823 0.0637203,-0.06128 0.0817066,-0.100958 0.0192517,-0.0408533 0.0264823,-0.0853219 0.0216016,-0.130966 -0.0191613,-0.177875 -0.0684202,-0.344903 -0.148952,-0.499911 -0.0805316,-0.155008 -0.185015,-0.291938 -0.31363,-0.410883 -0.128525,-0.11777 -0.275127,-0.210322 -0.438631,-0.277567 -0.164588,-0.0673356 -0.340022,-0.100958 -0.526303,-0.102133 -0.199386,0.00117498 -0.385666,0.0395879 -0.55875,0.114154 -0.172994,0.0733009 -0.324386,0.176609 -0.455352,0.30875 -0.132231,0.130966 -0.234364,0.283623 -0.307665,0.455442 -0.0744759,0.172994 -0.111714,0.358099 -0.112889,0.55631l0 2.35042c0.00117498,0.199476 0.038413,0.385666 0.112889,0.55875 0.0733009,0.172994 0.175434,0.324386 0.307665,0.455352 0.130966,0.132231 0.282358,0.234364 0.455352,0.307665 0.173084,0.0744759 0.359364,0.111714 0.55875,0.112979z"/>
  <path id="1234567891011121314151617181920" class="fil16" d="M144.334 56.7731l-1.8168 0 0 -1.98988 1.58614 0c0.0733009,-0.00244035 0.134581,-0.0264823 0.18384,-0.0745663 0.048084,-0.0479936 0.0733009,-0.106924 0.0756509,-0.177784 -0.00234997,-0.0744759 -0.0275669,-0.135756 -0.0756509,-0.18384 -0.049259,-0.049259 -0.110539,-0.0744759 -0.18384,-0.0757413l-1.58614 0 0 -1.60051 1.7952 0c0.0733009,-0.00244035 0.134581,-0.0276573 0.18384,-0.0757413 0.048084,-0.049259 0.0733009,-0.110539 0.0757413,-0.18384 -0.00244035,-0.0708606 -0.0276573,-0.129791 -0.0757413,-0.177875 -0.049259,-0.0479936 -0.110539,-0.0720356 -0.18384,-0.0744759l-2.05478 0c-0.0708606,0.00244035 -0.129791,0.0264823 -0.177784,0.0744759 -0.048084,0.048084 -0.072126,0.107014 -0.0745663,0.177875l0 4.62139c0.00244035,0.0733009 0.0264823,0.134581 0.0745663,0.18384 0.0479936,0.048084 0.106924,0.0733009 0.177784,0.0757413l2.07638 0c0.0733009,-0.00244035 0.134581,-0.0276573 0.18384,-0.0757413 0.048084,-0.049259 0.0733009,-0.110539 0.0757413,-0.18384 -0.00244035,-0.0733009 -0.0276573,-0.134581 -0.0757413,-0.18384 -0.049259,-0.048084 -0.110539,-0.0733009 -0.18384,-0.0756509z"/>
  <path id="123456789101112131415161718192021" class="fil16" d="M147.453 57.3354c0.18384,0 0.360539,-0.0288323 0.529918,-0.0853219 0.170644,-0.0553146 0.322036,-0.138196 0.456617,-0.246385 0.134581,-0.108099 0.241504,-0.241504 0.320861,-0.397687 0.0780913,-0.157448 0.118945,-0.337672 0.12012,-0.539589 -0.00117498,-0.310015 -0.0744759,-0.582702 -0.221078,-0.817066 -0.145337,-0.234274 -0.358099,-0.430135 -0.636842,-0.588758 -0.278742,-0.161063 -0.496295,-0.288413 -0.650038,-0.380966 -0.153833,-0.0924622 -0.257141,-0.157358 -0.30884,-0.195861 -0.112979,-0.0817066 -0.199476,-0.157358 -0.263196,-0.227043 -0.0624549,-0.070951 -0.106924,-0.137021 -0.134581,-0.198301 -0.026392,-0.06128 -0.0432033,-0.11777 -0.049259,-0.170644 -0.00596531,-0.0528743 -0.00840566,-0.102133 -0.00723067,-0.146602 0,-0.0889373 0.0156363,-0.176609 0.048084,-0.260756 0.0324476,-0.0840566 0.082972,-0.160973 0.150217,-0.228308 0.0673356,-0.0685106 0.153833,-0.12256 0.258316,-0.163413 0.104574,-0.0396783 0.228308,-0.060105 0.37256,-0.06128 0.140546,0.00117498 0.264371,0.022867 0.37012,0.0660703 0.106924,0.0444686 0.194595,0.102133 0.266721,0.1767 0.0708606,0.0733009 0.123735,0.155008 0.159798,0.246295 0.036063,0.0912872 0.0540493,0.18628 0.0540493,0.282358 0.00244035,0.0733009 0.0276573,0.134581 0.0757413,0.18384 0.049259,0.048084 0.110539,0.0733009 0.18384,0.0757413 0.0744759,-0.00244035 0.135756,-0.0276573 0.18384,-0.0757413 0.049259,-0.049259 0.0744759,-0.110539 0.0757413,-0.18384 -0.00126537,-0.185015 -0.037238,-0.355659 -0.107014,-0.510666 -0.0708606,-0.156183 -0.169379,-0.292029 -0.294379,-0.407358 -0.12491,-0.115329 -0.270337,-0.204267 -0.434925,-0.267987 -0.164679,-0.0636299 -0.342463,-0.0960776 -0.533533,-0.0972526 -0.18149,0 -0.353309,0.0288323 -0.514282,0.0840566 -0.162238,0.0553146 -0.305225,0.137021 -0.430225,0.24277 -0.12491,0.106924 -0.223518,0.235449 -0.294379,0.388106 -0.0708606,0.151392 -0.108189,0.324386 -0.109364,0.517897 0.00117498,0.174259 0.0300977,0.331617 0.0889373,0.473428 0.0588396,0.140546 0.141812,0.269162 0.24991,0.384491 0.106924,0.116595 0.234364,0.224693 0.382141,0.324476 0.036063,0.024042 0.0769163,0.0504339 0.121385,0.0780913 0.0444686,0.0276573 0.100868,0.06128 0.169379,0.100958 0.0673356,0.0408533 0.155008,0.0912872 0.263196,0.155008 0.106924,0.0624549 0.242679,0.140546 0.404918,0.235539 0.135756,0.0840566 0.243945,0.166938 0.323211,0.246295 0.0805316,0.0792663 0.139462,0.158623 0.177875,0.236714 0.038413,0.0780913 0.0637203,0.157448 0.0744759,0.236714 0.012021,0.0792663 0.0168113,0.162238 0.0156363,0.246295 -0.00117498,0.152658 -0.038413,0.284798 -0.111714,0.397777 -0.0745663,0.112979 -0.17905,0.201826 -0.314896,0.264371 -0.134581,0.0624549 -0.295554,0.0937276 -0.481834,0.0949026 -0.146602,-0.00117498 -0.275127,-0.024042 -0.385666,-0.0672453 -0.111804,-0.0444686 -0.205532,-0.103399 -0.280008,-0.177875 -0.0756509,-0.0744759 -0.132141,-0.156183 -0.170644,-0.24756 -0.038413,-0.0912872 -0.0576646,-0.18384 -0.0576646,-0.278742 -0.00244035,-0.0744759 -0.0276573,-0.135756 -0.0756509,-0.18384 -0.0493493,-0.049259 -0.109364,-0.0744759 -0.18393,-0.0757413 -0.0708606,0.00126537 -0.1297,0.0264823 -0.177784,0.0757413 -0.048084,0.048084 -0.072126,0.109364 -0.0744759,0.18384 0,0.159798 0.0324476,0.31598 0.0960776,0.468638 0.0637203,0.151392 0.156183,0.288413 0.277567,0.410973 0.12021,0.12256 0.267987,0.219903 0.440981,0.291938 0.174259,0.0733009 0.371295,0.110539 0.591198,0.111804z"/>
  <path id="12345678910111213141516171819202122" class="fil16" d="M151.849 57.3354c0.18384,0 0.360539,-0.0288323 0.529918,-0.0853219 0.170644,-0.0553146 0.322036,-0.138196 0.456617,-0.246385 0.134581,-0.108099 0.241504,-0.241504 0.320861,-0.397687 0.0780913,-0.157448 0.118945,-0.337672 0.12012,-0.539589 -0.00117498,-0.310015 -0.0744759,-0.582702 -0.221078,-0.817066 -0.145337,-0.234274 -0.358099,-0.430135 -0.636842,-0.588758 -0.278742,-0.161063 -0.496295,-0.288413 -0.650038,-0.380966 -0.153833,-0.0924622 -0.257141,-0.157358 -0.30884,-0.195861 -0.112979,-0.0817066 -0.199476,-0.157358 -0.263196,-0.227043 -0.0624549,-0.070951 -0.106924,-0.137021 -0.134581,-0.198301 -0.026392,-0.06128 -0.0432033,-0.11777 -0.049259,-0.170644 -0.00596531,-0.0528743 -0.00840566,-0.102133 -0.00723067,-0.146602 0,-0.0889373 0.0156363,-0.176609 0.048084,-0.260756 0.0324476,-0.0840566 0.082972,-0.160973 0.150217,-0.228308 0.0673356,-0.0685106 0.153833,-0.12256 0.258316,-0.163413 0.104574,-0.0396783 0.228308,-0.060105 0.37256,-0.06128 0.140546,0.00117498 0.264371,0.022867 0.37012,0.0660703 0.106924,0.0444686 0.194595,0.102133 0.266721,0.1767 0.0708606,0.0733009 0.123735,0.155008 0.159798,0.246295 0.036063,0.0912872 0.0540493,0.18628 0.0540493,0.282358 0.00244035,0.0733009 0.0276573,0.134581 0.0757413,0.18384 0.049259,0.048084 0.110539,0.0733009 0.18384,0.0757413 0.0744759,-0.00244035 0.135756,-0.0276573 0.18384,-0.0757413 0.049259,-0.049259 0.0744759,-0.110539 0.0757413,-0.18384 -0.00126537,-0.185015 -0.037238,-0.355659 -0.107014,-0.510666 -0.0708606,-0.156183 -0.169379,-0.292029 -0.294379,-0.407358 -0.12491,-0.115329 -0.270337,-0.204267 -0.434925,-0.267987 -0.164679,-0.0636299 -0.342463,-0.0960776 -0.533533,-0.0972526 -0.18149,0 -0.353309,0.0288323 -0.514282,0.0840566 -0.162238,0.0553146 -0.305225,0.137021 -0.430225,0.24277 -0.12491,0.106924 -0.223518,0.235449 -0.294379,0.388106 -0.0708606,0.151392 -0.108189,0.324386 -0.109364,0.517897 0.00117498,0.174259 0.0300977,0.331617 0.0889373,0.473428 0.0588396,0.140546 0.141812,0.269162 0.24991,0.384491 0.106924,0.116595 0.234364,0.224693 0.382141,0.324476 0.036063,0.024042 0.0769163,0.0504339 0.121385,0.0780913 0.0444686,0.0276573 0.100868,0.06128 0.169379,0.100958 0.0673356,0.0408533 0.155008,0.0912872 0.263196,0.155008 0.106924,0.0624549 0.242679,0.140546 0.404918,0.235539 0.135756,0.0840566 0.243945,0.166938 0.323211,0.246295 0.0805316,0.0792663 0.139462,0.158623 0.177875,0.236714 0.038413,0.0780913 0.0637203,0.157448 0.0744759,0.236714 0.012021,0.0792663 0.0168113,0.162238 0.0156363,0.246295 -0.00117498,0.152658 -0.038413,0.284798 -0.111714,0.397777 -0.0745663,0.112979 -0.17905,0.201826 -0.314896,0.264371 -0.134581,0.0624549 -0.295554,0.0937276 -0.481834,0.0949026 -0.146602,-0.00117498 -0.275127,-0.024042 -0.385666,-0.0672453 -0.111804,-0.0444686 -0.205532,-0.103399 -0.280008,-0.177875 -0.0756509,-0.0744759 -0.132141,-0.156183 -0.170644,-0.24756 -0.038413,-0.0912872 -0.0576646,-0.18384 -0.0576646,-0.278742 -0.00244035,-0.0744759 -0.0276573,-0.135756 -0.0756509,-0.18384 -0.0493493,-0.049259 -0.109364,-0.0744759 -0.18393,-0.0757413 -0.0708606,0.00126537 -0.1297,0.0264823 -0.177784,0.0757413 -0.048084,0.048084 -0.072126,0.109364 -0.0744759,0.18384 0,0.159798 0.0324476,0.31598 0.0960776,0.468638 0.0637203,0.151392 0.156183,0.288413 0.277567,0.410973 0.12021,0.12256 0.267987,0.219903 0.440981,0.291938 0.174259,0.0733009 0.371295,0.110539 0.591198,0.111804z"/>
 </g>
</svg>
